<svg width="96" height="82" viewBox="0 0 96 82" fill="none" xmlns="http://www.w3.org/2000/svg">
<path d="M4.69238 71.58C5.38304 71.58 6.00838 71.7387 6.56838 72.056C7.12838 72.364 7.56704 72.8027 7.88438 73.372C8.20171 73.9413 8.36038 74.59 8.36038 75.318C8.36038 76.0553 8.20171 76.7087 7.88438 77.278C7.56704 77.8473 7.12838 78.2907 6.56838 78.608C6.01771 78.916 5.39238 79.07 4.69238 79.07C4.09504 79.07 3.55371 78.9487 3.06838 78.706C2.59238 78.454 2.20038 78.09 1.89238 77.614V81.716H0.898375V71.636H1.85038V73.092C2.14904 72.6067 2.54104 72.2333 3.02638 71.972C3.52104 71.7107 4.07638 71.58 4.69238 71.58ZM4.62238 78.188C5.13571 78.188 5.60238 78.0713 6.02238 77.838C6.44238 77.5953 6.76904 77.2547 7.00238 76.816C7.24504 76.3773 7.36638 75.878 7.36638 75.318C7.36638 74.758 7.24504 74.2633 7.00238 73.834C6.76904 73.3953 6.44238 73.0547 6.02238 72.812C5.60238 72.5693 5.13571 72.448 4.62238 72.448C4.09971 72.448 3.62838 72.5693 3.20838 72.812C2.79771 73.0547 2.47104 73.3953 2.22838 73.834C1.99504 74.2633 1.87838 74.758 1.87838 75.318C1.87838 75.878 1.99504 76.3773 2.22838 76.816C2.47104 77.2547 2.79771 77.5953 3.20838 77.838C3.62838 78.0713 4.09971 78.188 4.62238 78.188ZM12.989 71.58C13.9503 71.58 14.6877 71.8227 15.201 72.308C15.7143 72.784 15.971 73.4933 15.971 74.436V79H15.019V77.852C14.795 78.2347 14.4637 78.5333 14.025 78.748C13.5957 78.9627 13.0823 79.07 12.485 79.07C11.6637 79.07 11.0103 78.874 10.525 78.482C10.0397 78.09 9.79702 77.572 9.79702 76.928C9.79702 76.3027 10.021 75.7987 10.469 75.416C10.9263 75.0333 11.6497 74.842 12.639 74.842H14.977V74.394C14.977 73.7593 14.7997 73.2787 14.445 72.952C14.0903 72.616 13.5723 72.448 12.891 72.448C12.4243 72.448 11.9763 72.5273 11.547 72.686C11.1177 72.8353 10.749 73.0453 10.441 73.316L9.99302 72.574C10.3663 72.2567 10.8143 72.014 11.337 71.846C11.8597 71.6687 12.4103 71.58 12.989 71.58ZM12.639 78.286C13.199 78.286 13.6797 78.16 14.081 77.908C14.4823 77.6467 14.781 77.2733 14.977 76.788V75.584H12.667C11.407 75.584 10.777 76.0227 10.777 76.9C10.777 77.3293 10.9403 77.67 11.267 77.922C11.5937 78.1647 12.051 78.286 12.639 78.286ZM21.6971 79.07C20.9691 79.07 20.3158 78.9113 19.7371 78.594C19.1678 78.2767 18.7198 77.8333 18.3931 77.264C18.0665 76.6853 17.9031 76.0367 17.9031 75.318C17.9031 74.5993 18.0665 73.9553 18.3931 73.386C18.7198 72.8167 19.1678 72.3733 19.7371 72.056C20.3158 71.7387 20.9691 71.58 21.6971 71.58C22.3318 71.58 22.8965 71.706 23.3911 71.958C23.8951 72.2007 24.2918 72.56 24.5811 73.036L23.8391 73.54C23.5965 73.176 23.2885 72.9053 22.9151 72.728C22.5418 72.5413 22.1358 72.448 21.6971 72.448C21.1651 72.448 20.6845 72.5693 20.2551 72.812C19.8351 73.0453 19.5038 73.3813 19.2611 73.82C19.0278 74.2587 18.9111 74.758 18.9111 75.318C18.9111 75.8873 19.0278 76.3913 19.2611 76.83C19.5038 77.2593 19.8351 77.5953 20.2551 77.838C20.6845 78.0713 21.1651 78.188 21.6971 78.188C22.1358 78.188 22.5418 78.0993 22.9151 77.922C23.2885 77.7447 23.5965 77.474 23.8391 77.11L24.5811 77.614C24.2918 78.09 23.8951 78.454 23.3911 78.706C22.8871 78.9487 22.3225 79.07 21.6971 79.07ZM33.1138 71.636V79H32.1198V72.518H27.4998V79H26.5058V71.636H33.1138ZM39.0334 74.24C39.9574 74.2493 40.6621 74.4547 41.1474 74.856C41.6327 75.2573 41.8754 75.836 41.8754 76.592C41.8754 77.376 41.6141 77.978 41.0914 78.398C40.5687 78.818 39.8221 79.0233 38.8514 79.014L35.9394 79V71.636H36.9334V74.212L39.0334 74.24ZM43.1074 71.636H44.1014V79H43.1074V71.636ZM38.7954 78.258C39.4767 78.2673 39.9901 78.132 40.3354 77.852C40.6901 77.5627 40.8674 77.1427 40.8674 76.592C40.8674 76.0507 40.6947 75.6493 40.3494 75.388C40.0041 75.1267 39.4861 74.9913 38.7954 74.982L36.9334 74.954V78.23L38.7954 78.258ZM52.9516 71.636V79H51.9576V72.518H48.4296L48.3316 74.338C48.2569 75.8687 48.0796 77.0447 47.7996 77.866C47.5196 78.6873 47.0202 79.098 46.3016 79.098C46.1056 79.098 45.8676 79.0607 45.5876 78.986L45.6576 78.132C45.8256 78.1693 45.9422 78.188 46.0076 78.188C46.3902 78.188 46.6796 78.0107 46.8756 77.656C47.0716 77.3013 47.2022 76.8627 47.2676 76.34C47.3329 75.8173 47.3889 75.1267 47.4356 74.268L47.5616 71.636H52.9516ZM55.7773 71.636H56.7713V77.488L61.6853 71.636H62.5673V79H61.5733V73.148L56.6733 79H55.7773V71.636ZM70.596 72.518H67.81V79H66.816V72.518H64.03V71.636H70.596V72.518ZM78.1313 75.626H71.9713C72.0273 76.3913 72.3213 77.012 72.8533 77.488C73.3853 77.9547 74.0573 78.188 74.8693 78.188C75.3267 78.188 75.7467 78.1087 76.1293 77.95C76.512 77.782 76.8433 77.5393 77.1233 77.222L77.6833 77.866C77.3567 78.258 76.946 78.5567 76.4513 78.762C75.966 78.9673 75.4293 79.07 74.8413 79.07C74.0853 79.07 73.4133 78.9113 72.8253 78.594C72.2467 78.2673 71.794 77.8193 71.4673 77.25C71.1407 76.6807 70.9773 76.0367 70.9773 75.318C70.9773 74.5993 71.1313 73.9553 71.4393 73.386C71.7567 72.8167 72.186 72.3733 72.7273 72.056C73.278 71.7387 73.894 71.58 74.5753 71.58C75.2567 71.58 75.868 71.7387 76.4093 72.056C76.9507 72.3733 77.3753 72.8167 77.6833 73.386C77.9913 73.946 78.1453 74.59 78.1453 75.318L78.1313 75.626ZM74.5753 72.434C73.866 72.434 73.2687 72.6627 72.7833 73.12C72.3073 73.568 72.0367 74.156 71.9713 74.884H77.1933C77.128 74.156 76.8527 73.568 76.3673 73.12C75.8913 72.6627 75.294 72.434 74.5753 72.434ZM86.2153 71.636V79H85.2213V72.518H81.6933L81.5953 74.338C81.5206 75.8687 81.3433 77.0447 81.0633 77.866C80.7833 78.6873 80.2839 79.098 79.5653 79.098C79.3693 79.098 79.1313 79.0607 78.8513 78.986L78.9213 78.132C79.0893 78.1693 79.2059 78.188 79.2713 78.188C79.6539 78.188 79.9433 78.0107 80.1393 77.656C80.3353 77.3013 80.4659 76.8627 80.5312 76.34C80.5966 75.8173 80.6526 75.1267 80.6993 74.268L80.8253 71.636H86.2153ZM92.205 74.24C93.129 74.2493 93.829 74.4547 94.305 74.856C94.7903 75.2573 95.033 75.836 95.033 76.592C95.033 77.376 94.7716 77.978 94.249 78.398C93.7356 78.818 92.989 79.0233 92.009 79.014L89.041 79V71.636H90.035V74.212L92.205 74.24ZM91.953 78.258C92.6343 78.2673 93.1476 78.132 93.493 77.852C93.8476 77.5627 94.025 77.1427 94.025 76.592C94.025 76.0507 93.8523 75.6493 93.507 75.388C93.1616 75.1267 92.6436 74.9913 91.953 74.982L90.035 74.954V78.23L91.953 78.258Z" fill="#2F69B2"/>
<path d="M64.9412 51.7144C64.9412 54.0813 57.3564 56.0001 48 56.0001C38.6437 56.0001 31.0588 54.0813 31.0588 51.7144" stroke="#2F69B2"/>
<path d="M31.0588 32V52.5714" stroke="#2F69B2"/>
<path d="M64.9412 32V52.5714" stroke="#2F69B2"/>
<path d="M65.5 30.5C65.5 31.1955 65.1112 31.9238 64.2608 32.6498C63.4123 33.3742 62.1552 34.0492 60.5581 34.6259C57.3682 35.7778 52.9283 36.5 48 36.5C43.0717 36.5 38.6318 35.7778 35.4419 34.6259C33.8448 34.0492 32.5877 33.3742 31.7392 32.6498C30.8888 31.9238 30.5 31.1955 30.5 30.5C30.5 29.8045 30.8888 29.0762 31.7392 28.3502C32.5877 27.6258 33.8448 26.9508 35.4419 26.3741C38.6318 25.2222 43.0717 24.5 48 24.5C52.9283 24.5 57.3682 25.2222 60.5581 26.3741C62.1552 26.9508 63.4123 27.6258 64.2608 28.3502C65.1112 29.0762 65.5 29.8045 65.5 30.5Z" stroke="#2F69B2"/>
<path d="M62.5 10.5H60.5V13H62.5V10.5Z" stroke="#2F69B2" stroke-linejoin="round"/>
<path d="M48 33C54.6274 33 60 31.2091 60 29V5.5H36V29C36 31.2091 41.3726 33 48 33Z" fill="white" stroke="#2F69B2"/>
<ellipse cx="48" cy="5" rx="12" ry="4" fill="white" stroke="#2F69B2"/>
<path d="M39 10.5V29" stroke="#2F69B2"/>
<path d="M42 12V30.5" stroke="#2F69B2"/>
<path d="M45 13V31.5" stroke="#2F69B2"/>
<path d="M51 13V31.5" stroke="#2F69B2"/>
<path d="M54 12V30.5" stroke="#2F69B2"/>
<path d="M57 11V29.5" stroke="#2F69B2"/>
<circle r="0.473683" transform="matrix(-1 0 0 1 68.1444 10.7815)" fill="#2F69B2"/>
<circle r="0.473683" transform="matrix(-1 0 0 1 68.1444 13.2173)" fill="#2F69B2"/>
<circle r="0.473683" transform="matrix(-1 0 0 1 70.8511 9.56353)" fill="#2F69B2"/>
<circle r="0.473683" transform="matrix(-1 0 0 1 70.8511 11.9996)" fill="#2F69B2"/>
<circle r="0.473683" transform="matrix(-1 0 0 1 65.4737 11.9996)" fill="#2F69B2"/>
<circle r="0.473683" transform="matrix(-1 0 0 1 70.8511 14.4356)" fill="#2F69B2"/>
<circle r="0.473683" transform="matrix(-1 0 0 1 73.5578 10.7815)" fill="#2F69B2"/>
<circle r="0.473683" transform="matrix(-1 0 0 1 73.5578 8.34575)" fill="#2F69B2"/>
<circle r="0.473683" transform="matrix(-1 0 0 1 73.5578 13.2176)" fill="#2F69B2"/>
<circle r="0.473683" transform="matrix(-1 0 0 1 73.5578 15.6536)" fill="#2F69B2"/>
<circle r="0.473683" transform="matrix(-1 0 0 1 76.2646 11.9998)" fill="#2F69B2" fill-opacity="0.9"/>
<circle r="0.473683" transform="matrix(-1 0 0 1 76.2646 9.56377)" fill="#2F69B2" fill-opacity="0.9"/>
<circle r="0.473683" transform="matrix(-1 0 0 1 76.2646 14.4358)" fill="#2F69B2" fill-opacity="0.9"/>
<circle r="0.473683" transform="matrix(-1 0 0 1 76.2646 16.8729)" fill="#2F69B2" fill-opacity="0.9"/>
<circle r="0.473683" transform="matrix(-1 0 0 1 76.2646 7.12774)" fill="#2F69B2" fill-opacity="0.9"/>
<circle r="0.473683" transform="matrix(-1 0 0 1 78.9714 13.2176)" fill="#2F69B2" fill-opacity="0.8"/>
<circle r="0.473683" transform="matrix(-1 0 0 1 78.9714 10.7815)" fill="#2F69B2" fill-opacity="0.8"/>
<circle r="0.473683" transform="matrix(-1 0 0 1 78.9714 15.6546)" fill="#2F69B2" fill-opacity="0.8"/>
<circle r="0.473683" transform="matrix(-1 0 0 1 78.9714 18.0904)" fill="#2F69B2" fill-opacity="0.8"/>
<circle r="0.473683" transform="matrix(-1 0 0 1 78.9714 5.90972)" fill="#2F69B2" fill-opacity="0.8"/>
<circle r="0.473683" transform="matrix(-1 0 0 1 78.9714 8.34575)" fill="#2F69B2" fill-opacity="0.8"/>
<circle r="0.473683" transform="matrix(-1 0 0 1 81.6782 14.4368)" fill="#2F69B2" fill-opacity="0.6"/>
<circle r="0.473683" transform="matrix(-1 0 0 1 81.6782 11.9998)" fill="#2F69B2" fill-opacity="0.6"/>
<circle r="0.473683" transform="matrix(-1 0 0 1 81.6782 16.8729)" fill="#2F69B2" fill-opacity="0.6"/>
<circle r="0.473683" transform="matrix(-1 0 0 1 81.6782 19.3086)" fill="#2F69B2" fill-opacity="0.6"/>
<circle r="0.473683" transform="matrix(-1 0 0 1 81.6782 7.12798)" fill="#2F69B2" fill-opacity="0.6"/>
<circle r="0.473683" transform="matrix(-1 0 0 1 81.6782 4.6917)" fill="#2F69B2" fill-opacity="0.6"/>
<circle r="0.473683" transform="matrix(-1 0 0 1 81.6782 9.56377)" fill="#2F69B2" fill-opacity="0.6"/>
<circle r="0.473683" transform="matrix(-1 0 0 1 84.3848 15.6546)" fill="#2F69B2" fill-opacity="0.4"/>
<circle r="0.473683" transform="matrix(-1 0 0 1 84.3848 13.2186)" fill="#2F69B2" fill-opacity="0.4"/>
<circle r="0.473683" transform="matrix(-1 0 0 1 84.3848 18.0904)" fill="#2F69B2" fill-opacity="0.4"/>
<circle r="0.473683" transform="matrix(-1 0 0 1 84.3848 20.5264)" fill="#2F69B2" fill-opacity="0.4"/>
<circle r="0.473683" transform="matrix(-1 0 0 1 84.3848 8.34575)" fill="#2F69B2" fill-opacity="0.4"/>
<circle r="0.473683" transform="matrix(-1 0 0 1 84.3848 5.90972)" fill="#2F69B2" fill-opacity="0.4"/>
<circle r="0.473683" transform="matrix(-1 0 0 1 84.3848 3.47368)" fill="#2F69B2" fill-opacity="0.4"/>
<circle r="0.473683" transform="matrix(-1 0 0 1 84.3848 10.7815)" fill="#2F69B2" fill-opacity="0.4"/>
</svg>
