<svg width="91" height="59" viewBox="0 0 91 59" fill="none" xmlns="http://www.w3.org/2000/svg">
<path d="M18.6446 52.724H16.9646V56H15.9706V48.636H16.9646V51.87H18.6586L21.2486 48.636H22.3266L19.4286 52.206L22.5366 56H21.3606L18.6446 52.724ZM27.8994 48.58C28.5901 48.58 29.2154 48.7387 29.7754 49.056C30.3354 49.364 30.7741 49.8027 31.0914 50.372C31.4087 50.9413 31.5674 51.59 31.5674 52.318C31.5674 53.0553 31.4087 53.7087 31.0914 54.278C30.7741 54.8473 30.3354 55.2907 29.7754 55.608C29.2247 55.916 28.5994 56.07 27.8994 56.07C27.3021 56.07 26.7607 55.9487 26.2754 55.706C25.7994 55.454 25.4074 55.09 25.0994 54.614V58.716H24.1054V48.636H25.0574V50.092C25.3561 49.6067 25.7481 49.2333 26.2334 48.972C26.7281 48.7107 27.2834 48.58 27.8994 48.58ZM27.8294 55.188C28.3427 55.188 28.8094 55.0713 29.2294 54.838C29.6494 54.5953 29.9761 54.2547 30.2094 53.816C30.4521 53.3773 30.5734 52.878 30.5734 52.318C30.5734 51.758 30.4521 51.2633 30.2094 50.834C29.9761 50.3953 29.6494 50.0547 29.2294 49.812C28.8094 49.5693 28.3427 49.448 27.8294 49.448C27.3067 49.448 26.8354 49.5693 26.4154 49.812C26.0047 50.0547 25.6781 50.3953 25.4354 50.834C25.2021 51.2633 25.0854 51.758 25.0854 52.318C25.0854 52.878 25.2021 53.3773 25.4354 53.816C25.6781 54.2547 26.0047 54.5953 26.4154 54.838C26.8354 55.0713 27.3067 55.188 27.8294 55.188ZM36.7971 51.24C37.7211 51.2493 38.4257 51.4547 38.9111 51.856C39.3964 52.2573 39.6391 52.836 39.6391 53.592C39.6391 54.376 39.3777 54.978 38.8551 55.398C38.3324 55.818 37.5857 56.0233 36.6151 56.014L33.7031 56V48.636H34.6971V51.212L36.7971 51.24ZM40.8711 48.636H41.8651V56H40.8711V48.636ZM36.5591 55.258C37.2404 55.2673 37.7537 55.132 38.0991 54.852C38.4537 54.5627 38.6311 54.1427 38.6311 53.592C38.6311 53.0507 38.4584 52.6493 38.1131 52.388C37.7677 52.1267 37.2497 51.9913 36.5591 51.982L34.6971 51.954V55.23L36.5591 55.258ZM54.8593 48.636V56H44.6953V48.636H45.6893V55.132H49.3013V48.636H50.2953V55.132H53.8653V48.636H54.8593ZM60.3712 52.724H58.6912V56H57.6972V48.636H58.6912V51.87H60.3852L62.9752 48.636H64.0532L61.1552 52.206L64.2632 56H63.0872L60.3712 52.724ZM68.2293 48.58C69.1906 48.58 69.9279 48.8227 70.4413 49.308C70.9546 49.784 71.2113 50.4933 71.2113 51.436V56H70.2593V54.852C70.0353 55.2347 69.7039 55.5333 69.2653 55.748C68.8359 55.9627 68.3226 56.07 67.7253 56.07C66.9039 56.07 66.2506 55.874 65.7653 55.482C65.2799 55.09 65.0373 54.572 65.0373 53.928C65.0373 53.3027 65.2613 52.7987 65.7093 52.416C66.1666 52.0333 66.8899 51.842 67.8792 51.842H70.2173V51.394C70.2173 50.7593 70.0399 50.2787 69.6853 49.952C69.3306 49.616 68.8126 49.448 68.1313 49.448C67.6646 49.448 67.2166 49.5273 66.7873 49.686C66.3579 49.8353 65.9893 50.0453 65.6813 50.316L65.2333 49.574C65.6066 49.2567 66.0546 49.014 66.5773 48.846C67.0999 48.6687 67.6506 48.58 68.2293 48.58ZM67.8792 55.286C68.4393 55.286 68.9199 55.16 69.3213 54.908C69.7226 54.6467 70.0213 54.2733 70.2173 53.788V52.584H67.9073C66.6473 52.584 66.0173 53.0227 66.0173 53.9C66.0173 54.3293 66.1806 54.67 66.5073 54.922C66.8339 55.1647 67.2913 55.286 67.8792 55.286Z" fill="#4F93AD"/>
<path d="M63 29C63 31.7614 55.3888 34 46 34C36.6112 34 29 31.7614 29 29" stroke="#4F93AD"/>
<path d="M33 10V30" stroke="#4F93AD"/>
<path d="M29 6V30" stroke="#4F93AD"/>
<path d="M63 6V30" stroke="#4F93AD"/>
<path d="M38 12V31" stroke="#4F93AD"/>
<path d="M42 13V32" stroke="#4F93AD"/>
<path d="M46 13V32" stroke="#4F93AD"/>
<path d="M50 13V32" stroke="#4F93AD"/>
<path d="M54 12V31" stroke="#4F93AD"/>
<path d="M59 10V30" stroke="#4F93AD"/>
<ellipse cx="46" cy="6" rx="17" ry="5" fill="white" stroke="#4F93AD"/>
</svg>
