<svg width="91" height="77" viewBox="0 0 91 77" fill="none" xmlns="http://www.w3.org/2000/svg">
<path d="M23.408 70.3695H21.812V73.6455H20.818V70.3695H19.222L16.968 73.6455H15.778L18.424 69.8515L15.988 66.2815H17.066L19.222 69.5155H20.818V66.2815H21.812V69.5155H23.408L25.578 66.2815H26.656L24.22 69.8655L26.866 73.6455H25.676L23.408 70.3695ZM34.3546 66.2815L30.6726 74.5275C30.374 75.2182 30.0286 75.7082 29.6366 75.9975C29.2446 76.2868 28.7733 76.4315 28.2226 76.4315C27.868 76.4315 27.5366 76.3755 27.2286 76.2635C26.9206 76.1515 26.6546 75.9835 26.4306 75.7595L26.8926 75.0175C27.266 75.3908 27.714 75.5775 28.2366 75.5775C28.5726 75.5775 28.8573 75.4842 29.0906 75.2975C29.3333 75.1108 29.5573 74.7935 29.7626 74.3455L30.0846 73.6315L26.7946 66.2815H27.8306L30.6026 72.5395L33.3746 66.2815H34.3546ZM39.6973 66.2255C40.3879 66.2255 41.0133 66.3842 41.5733 66.7015C42.1333 67.0095 42.5719 67.4482 42.8893 68.0175C43.2066 68.5868 43.3653 69.2355 43.3653 69.9635C43.3653 70.7008 43.2066 71.3542 42.8893 71.9235C42.5719 72.4928 42.1333 72.9362 41.5733 73.2535C41.0226 73.5615 40.3973 73.7155 39.6973 73.7155C39.0999 73.7155 38.5586 73.5942 38.0733 73.3515C37.5973 73.0995 37.2053 72.7355 36.8973 72.2595V76.3615H35.9033V66.2815H36.8553V67.7375C37.1539 67.2522 37.5459 66.8788 38.0313 66.6175C38.5259 66.3562 39.0813 66.2255 39.6973 66.2255ZM39.6273 72.8335C40.1406 72.8335 40.6073 72.7168 41.0273 72.4835C41.4473 72.2408 41.7739 71.9002 42.0073 71.4615C42.2499 71.0228 42.3713 70.5235 42.3713 69.9635C42.3713 69.4035 42.2499 68.9088 42.0073 68.4795C41.7739 68.0408 41.4473 67.7002 41.0273 67.4575C40.6073 67.2148 40.1406 67.0935 39.6273 67.0935C39.1046 67.0935 38.6333 67.2148 38.2133 67.4575C37.8026 67.7002 37.4759 68.0408 37.2333 68.4795C36.9999 68.9088 36.8833 69.4035 36.8833 69.9635C36.8833 70.5235 36.9999 71.0228 37.2333 71.4615C37.4759 71.9002 37.8026 72.2408 38.2133 72.4835C38.6333 72.7168 39.1046 72.8335 39.6273 72.8335ZM47.9939 66.2255C48.9552 66.2255 49.6926 66.4682 50.2059 66.9535C50.7192 67.4295 50.9759 68.1388 50.9759 69.0815V73.6455H50.0239V72.4975C49.7999 72.8802 49.4686 73.1788 49.0299 73.3935C48.6006 73.6082 48.0872 73.7155 47.4899 73.7155C46.6686 73.7155 46.0152 73.5195 45.5299 73.1275C45.0446 72.7355 44.8019 72.2175 44.8019 71.5735C44.8019 70.9482 45.0259 70.4442 45.4739 70.0615C45.9312 69.6788 46.6546 69.4875 47.6439 69.4875H49.9819V69.0395C49.9819 68.4048 49.8046 67.9242 49.4499 67.5975C49.0952 67.2615 48.5772 67.0935 47.8959 67.0935C47.4292 67.0935 46.9812 67.1728 46.5519 67.3315C46.1226 67.4808 45.7539 67.6908 45.4459 67.9615L44.9979 67.2195C45.3712 66.9022 45.8192 66.6595 46.3419 66.4915C46.8646 66.3142 47.4152 66.2255 47.9939 66.2255ZM47.6439 72.9315C48.2039 72.9315 48.6846 72.8055 49.0859 72.5535C49.4872 72.2922 49.7859 71.9188 49.9819 71.4335V70.2295H47.6719C46.4119 70.2295 45.7819 70.6682 45.7819 71.5455C45.7819 71.9748 45.9452 72.3155 46.2719 72.5675C46.5986 72.8102 47.0559 72.9315 47.6439 72.9315ZM58.312 69.8375C59.3107 70.0708 59.81 70.6728 59.81 71.6435C59.81 72.2875 59.572 72.7822 59.096 73.1275C58.62 73.4728 57.9107 73.6455 56.968 73.6455H53.622V66.2815H56.87C57.71 66.2815 58.368 66.4448 58.844 66.7715C59.32 67.0982 59.558 67.5648 59.558 68.1715C59.558 68.5728 59.446 68.9182 59.222 69.2075C59.0073 69.4875 58.704 69.6975 58.312 69.8375ZM54.588 69.5575H56.8C57.3693 69.5575 57.8033 69.4502 58.102 69.2355C58.41 69.0208 58.564 68.7082 58.564 68.2975C58.564 67.8868 58.41 67.5788 58.102 67.3735C57.8033 67.1682 57.3693 67.0655 56.8 67.0655H54.588V69.5575ZM56.926 72.8615C57.5607 72.8615 58.0367 72.7588 58.354 72.5535C58.6713 72.3482 58.83 72.0262 58.83 71.5875C58.83 71.1488 58.6853 70.8268 58.396 70.6215C58.1067 70.4068 57.6493 70.2995 57.024 70.2995H54.588V72.8615H56.926ZM68.1596 66.2815V73.6455H67.1656V67.1635H63.6376L63.5396 68.9835C63.4649 70.5142 63.2876 71.6902 63.0076 72.5115C62.7276 73.3328 62.2283 73.7435 61.5096 73.7435C61.3136 73.7435 61.0756 73.7062 60.7956 73.6315L60.8656 72.7775C61.0336 72.8148 61.1503 72.8335 61.2156 72.8335C61.5983 72.8335 61.8876 72.6562 62.0836 72.3015C62.2796 71.9468 62.4103 71.5082 62.4756 70.9855C62.5409 70.4628 62.5969 69.7722 62.6436 68.9135L62.7696 66.2815H68.1596ZM74.1493 68.8855C75.0733 68.8948 75.7733 69.1002 76.2493 69.5015C76.7346 69.9028 76.9773 70.4815 76.9773 71.2375C76.9773 72.0215 76.716 72.6235 76.1933 73.0435C75.68 73.4635 74.9333 73.6688 73.9533 73.6595L70.9853 73.6455V66.2815H71.9793V68.8575L74.1493 68.8855ZM73.8973 72.9035C74.5786 72.9128 75.092 72.7775 75.4373 72.4975C75.792 72.2082 75.9693 71.7882 75.9693 71.2375C75.9693 70.6962 75.7966 70.2948 75.4513 70.0335C75.106 69.7722 74.588 69.6368 73.8973 69.6275L71.9793 69.5995V72.8755L73.8973 72.9035Z" fill="#0D3054"/>
<path d="M63 46.6455C63 49.4069 55.3888 51.6455 46 51.6455C36.6112 51.6455 29 49.4069 29 46.6455" stroke="#0D3054"/>
<path d="M33 28.6455V48.6455" stroke="#0D3054"/>
<path d="M29 23.6455V47.6455" stroke="#0D3054"/>
<path d="M63 24V48" stroke="#0D3054"/>
<path d="M38 30.6455V49.6455" stroke="#0D3054"/>
<path d="M42 31.6455V50.6455" stroke="#0D3054"/>
<path d="M46 31.6455V50.6455" stroke="#0D3054"/>
<path d="M50 31V50" stroke="#0D3054"/>
<path d="M54 30V49" stroke="#0D3054"/>
<path d="M59 28V48" stroke="#0D3054"/>
<ellipse cx="46" cy="23.6455" rx="17" ry="5" fill="white" stroke="#0D3054"/>
<path d="M46 25.6455C53.1797 25.6455 59 23.7501 59 22.6455V13.1455C59 13.1455 52 14.6455 46 14.6455C41.2 14.6455 35.3333 13.6455 33 13.1455V22.6455C33 23.7501 38.8203 25.6455 46 25.6455Z" fill="white" stroke="#0D3054"/>
<ellipse cx="46" cy="12.6455" rx="13" ry="2" fill="white" stroke="#0D3054"/>
<path d="M46.5 12.6455C48.9853 12.6455 51 12.4324 51 11.7255V5.64551C51 5.64551 48.5769 6.60551 46.5 6.60551C44.8385 6.60551 42.8077 5.96551 42 5.64551V11.7255C42 12.4324 44.0147 12.6455 46.5 12.6455Z" fill="white" stroke="#0D3054"/>
<path d="M51 5.14551C51 5.97393 48.9853 6.64551 46.5 6.64551C44.0147 6.64551 42 5.97393 42 5.14551C42 4.64551 44.0147 4.14551 46.5 4.14551C48.9853 4.14551 50.5 4.64551 51 5.14551Z" fill="white" stroke="#0D3054"/>
<path d="M55.2878 4.76354C55.4208 4.6699 55.5 4.51737 55.5 4.35466V2.64551C55.5 2.37463 55.2843 2.15301 55.0135 2.14569L18.0135 1.14569C17.9524 1.14404 17.8914 1.15362 17.8337 1.17396L10.1506 3.88311C9.95067 3.95363 9.81692 4.14261 9.81692 4.35465L9.81689 6.45113C9.81689 6.61502 9.89721 6.76851 10.0319 6.86194C10.1665 6.95537 10.3384 6.97687 10.4919 6.9195C15.5049 5.04606 19.1141 4.84283 22.9127 5.20727C24.4721 5.35687 26.0593 5.60162 27.8 5.87003C28.1971 5.93125 28.6021 5.9937 29.0166 6.05654C31.2421 6.39391 33.7204 6.73881 36.6439 6.94984C42.4876 7.37165 46.8114 7.0565 49.8364 6.52428C52.8429 5.99528 54.6034 5.24516 55.2878 4.76354Z" fill="white" stroke="#0D3054" stroke-linejoin="round"/>
<path d="M55.2877 2.7634C55.4496 2.64948 55.529 2.45081 55.4903 2.2567C55.4516 2.0626 55.302 1.9096 55.1088 1.86651L53.033 1.40344C51.1133 0.975177 49.1607 0.732893 47.1921 0.691353C43.3521 0.610323 36.29 0.486189 29.6298 0.501183C26.3001 0.508679 23.0671 0.550952 20.386 0.651023C17.72 0.750526 15.5576 0.908196 14.3956 1.15626C12.9971 1.45479 12.0055 1.78767 11.3063 2.12983C10.61 2.47057 10.1721 2.83598 9.92591 3.21709C9.66961 3.61388 9.64454 3.99218 9.70859 4.28465C9.73915 4.42423 9.78803 4.5363 9.83078 4.61568C9.8523 4.65563 9.87279 4.68828 9.88961 4.71308C9.89805 4.72552 9.90564 4.73609 9.91207 4.74474L9.92085 4.7563L9.92454 4.76101L9.9262 4.76309L9.92698 4.76407C9.92736 4.76454 9.92773 4.765 10.3168 4.45099L9.92773 4.765C10.0512 4.91795 10.2528 4.9844 10.4429 4.93483C19.3025 2.62568 22.8525 3.15639 28.2832 3.96825C30.5619 4.3089 33.1717 4.69906 36.6439 4.94969C42.4876 5.37151 46.8114 5.05636 49.8363 4.52413C52.8429 3.99514 54.6034 3.24502 55.2877 2.7634Z" fill="white" stroke="#0D3054" stroke-linejoin="round"/>
</svg>
