<svg width="12" height="23" viewBox="0 0 12 23" fill="none" xmlns="http://www.w3.org/2000/svg">
<path d="M11.1073 1.40697L11.0402 4.05193C10.947 4.05124 10.8396 4.0505 10.7206 4.04975C10.2878 4.04704 9.70203 4.04432 9.0905 4.04432C8.38187 4.04432 7.84458 4.20566 7.51411 4.62574C7.20343 5.02066 7.15748 5.55186 7.15748 6.05615V8.71989C7.15748 8.9408 7.33656 9.11989 7.55748 9.11989H11.1157L10.9806 11.9679H7.55748C7.33656 11.9679 7.15748 12.147 7.15748 12.3679V22.1H4.08175V12.3679C4.08175 12.147 3.90266 11.9679 3.68175 11.9679H1.38975V9.11989H3.68175C3.90266 9.11989 4.08175 8.9408 4.08175 8.71989V5.604C4.08175 4.46493 4.45082 3.39835 5.21975 2.61807C5.98553 1.84098 7.18831 1.30698 8.93602 1.30698C9.66544 1.30698 10.3001 1.34179 10.7519 1.37657C10.8879 1.38704 11.0072 1.39749 11.1073 1.40697Z" stroke="#707070" stroke-width="0.8" stroke-linejoin="round"/>
</svg>
