<svg width="68" height="77" viewBox="0 0 68 77" fill="none" xmlns="http://www.w3.org/2000/svg">
<path d="M10.556 70.304C10.556 71.452 10.178 72.3527 9.42195 73.006C8.66595 73.6593 7.59729 74.014 6.21595 74.07V76.716H5.24995V74.084C3.87795 74.028 2.81395 73.6733 2.05795 73.02C1.31129 72.3573 0.937953 71.452 0.937953 70.304C0.937953 69.1653 1.31129 68.274 2.05795 67.63C2.81395 66.986 3.87795 66.636 5.24995 66.58V63.612H6.21595V66.58C7.59729 66.6453 8.66595 67 9.42195 67.644C10.178 68.288 10.556 69.1747 10.556 70.304ZM1.91795 70.304C1.91795 71.1813 2.19795 71.8673 2.75795 72.362C3.32729 72.8567 4.15795 73.1367 5.24995 73.202V67.462C4.16729 67.518 3.34129 67.7933 2.77195 68.288C2.20262 68.7733 1.91795 69.4453 1.91795 70.304ZM6.21595 73.202C7.30795 73.146 8.13862 72.8707 8.70795 72.376C9.28662 71.8813 9.57595 71.1907 9.57595 70.304C9.57595 69.436 9.28662 68.7593 8.70795 68.274C8.13862 67.7887 7.30795 67.518 6.21595 67.462V73.202ZM18.6371 66.636V74H17.6431V67.518H14.1151L14.0171 69.338C13.9425 70.8687 13.7651 72.0447 13.4851 72.866C13.2051 73.6873 12.7058 74.098 11.9871 74.098C11.7911 74.098 11.5531 74.0607 11.2731 73.986L11.3431 73.132C11.5111 73.1693 11.6278 73.188 11.6931 73.188C12.0758 73.188 12.3651 73.0107 12.5611 72.656C12.7571 72.3013 12.8878 71.8627 12.9531 71.34C13.0185 70.8173 13.0745 70.1267 13.1211 69.268L13.2471 66.636H18.6371ZM21.4628 66.636H22.4568V72.488L27.3708 66.636H28.2528V74H27.2588V68.148L22.3588 74H21.4628V66.636ZM37.7095 66.636V74H36.7155V67.518H32.0955V74H31.1015V66.636H37.7095ZM39.9611 69.772H43.6291V70.64H39.9611V69.772ZM50.7327 67.518H47.9467V74H46.9527V67.518H44.1667V66.636H50.7327V67.518ZM54.8661 74.07C54.1567 74.07 53.5174 73.9113 52.9481 73.594C52.3787 73.2673 51.9307 72.8193 51.6041 72.25C51.2774 71.6807 51.1141 71.0367 51.1141 70.318C51.1141 69.5993 51.2774 68.9553 51.6041 68.386C51.9307 67.8167 52.3787 67.3733 52.9481 67.056C53.5174 66.7387 54.1567 66.58 54.8661 66.58C55.5754 66.58 56.2147 66.7387 56.7841 67.056C57.3534 67.3733 57.7967 67.8167 58.1141 68.386C58.4407 68.9553 58.6041 69.5993 58.6041 70.318C58.6041 71.0367 58.4407 71.6807 58.1141 72.25C57.7967 72.8193 57.3534 73.2673 56.7841 73.594C56.2147 73.9113 55.5754 74.07 54.8661 74.07ZM54.8661 73.188C55.3887 73.188 55.8554 73.0713 56.2661 72.838C56.6861 72.5953 57.0127 72.2547 57.2461 71.816C57.4794 71.3773 57.5961 70.878 57.5961 70.318C57.5961 69.758 57.4794 69.2587 57.2461 68.82C57.0127 68.3813 56.6861 68.0453 56.2661 67.812C55.8554 67.5693 55.3887 67.448 54.8661 67.448C54.3434 67.448 53.8721 67.5693 53.4521 67.812C53.0414 68.0453 52.7147 68.3813 52.4721 68.82C52.2387 69.2587 52.1221 69.758 52.1221 70.318C52.1221 70.878 52.2387 71.3773 52.4721 71.816C52.7147 72.2547 53.0414 72.5953 53.4521 72.838C53.8721 73.0713 54.3434 73.188 54.8661 73.188ZM67.3365 66.636V74H66.3425V67.518H61.7225V74H60.7285V66.636H67.3365Z" fill="#4F93AD"/>
<path d="M52 46C52 48.7614 44.3888 51 35 51C25.6112 51 18 48.7614 18 46" stroke="#4F93AD"/>
<path d="M18 23V47" stroke="#4F93AD"/>
<path d="M52 23V47" stroke="#4F93AD"/>
<path d="M24 30V49" stroke="#4F93AD"/>
<ellipse cx="35" cy="24" rx="17" ry="5" fill="white" stroke="#4F93AD"/>
<path d="M48.5559 11.3191C49.7064 13.8473 43.7705 18.1377 35.4472 21.9251C27.1239 25.7125 19.4439 26.7333 18.2935 24.2051" stroke="#4F93AD"/>
<path d="M47.8735 6.47852L48.5999 11.4552" stroke="#4F93AD"/>
<path d="M17.5654 19.373L18.2918 24.3497" stroke="#4F93AD"/>
<ellipse cx="32.7197" cy="12.9258" rx="16.7647" ry="5.02941" transform="rotate(-24.4672 32.7197 12.9258)" fill="white" stroke="#4F93AD"/>
<path d="M32.4707 19.1897V23.2971" stroke="#4F93AD"/>
<path d="M38.3384 19.1897V23.2971" stroke="#4F93AD"/>
<ellipse cx="35.4045" cy="19.4832" rx="2.93382" ry="0.880147" fill="white" stroke="#4F93AD"/>
<path d="M38.3384 23.0037C38.3384 23.4898 37.0248 23.8838 35.4045 23.8838C33.7842 23.8838 32.4707 23.4898 32.4707 23.0037" stroke="#4F93AD"/>
</svg>
