<svg width="62" height="56" viewBox="0 0 62 56" fill="none" xmlns="http://www.w3.org/2000/svg">
<path d="M59.6406 30.9036C57.6786 30.3523 55.4809 30.0894 52.6333 30.628C45.3458 32.0064 40.2071 35.5859 37.2173 36.8724C34.8497 37.0387 31.308 37.3067 27.6874 38.0713M40.3005 46.6175C38.0582 45.7904 32.1721 44.9634 29.6494 45.1428C27.4129 45.3019 21.2407 47.1688 19.559 46.8931C18.1766 46.6665 17.0363 42.6617 21.2407 40.1806C21.7077 39.905 22.2773 39.6475 22.9225 39.4076M61.3223 43.7645C54.5019 47.2564 39.7399 54.3506 35.2552 54.7917C29.6494 55.3431 8.06699 44.3157 2.46118 36.8724C-3.14464 29.4291 9.03854 35.4073 11.1502 36.8724C13.6729 38.6227 17.4101 40.7363 18.9984 41.6552M1.3401 33.1091C2.08754 32.0063 4.4233 30.628 7.5065 31.3588C12.4189 32.5232 21.521 39.8693 22.9225 39.4076M22.9225 39.4076C24.1207 38.9622 26.1404 38.3981 27.6874 38.0713M12.2714 33.6604C13.0189 33.201 16.0273 32.0756 19.8393 33.8399C24.6042 36.0454 26.286 37.2443 27.6874 38.0713" stroke="#2F69B2"/>
<path d="M32.9091 0.609009L39.5209 11.6998C42.5798 16.8308 38.8826 23.3391 32.9091 23.3391V23.3391C26.9355 23.3391 23.2383 16.8308 26.2972 11.6998L32.9091 0.609009Z" stroke="#2F69B2" stroke-linejoin="round"/>
</svg>
