<svg width="55" height="55" viewBox="0 0 55 55" fill="none" xmlns="http://www.w3.org/2000/svg">
<mask id="path-1-inside-1" fill="white">
<path fill-rule="evenodd" clip-rule="evenodd" d="M34.5969 0H19.5163V19.5161H0V34.5968H19.5163V55H34.5969V34.5968H55V19.5161H34.5969V0Z"/>
</mask>
<path d="M19.5163 0V-1H18.5163V0H19.5163ZM34.5969 0H35.5969V-1H34.5969V0ZM19.5163 19.5161V20.5161H20.5163V19.5161H19.5163ZM0 19.5161V18.5161H-1V19.5161H0ZM0 34.5968H-1V35.5968H0V34.5968ZM19.5163 34.5968H20.5163V33.5968H19.5163V34.5968ZM19.5163 55H18.5163V56H19.5163V55ZM34.5969 55V56H35.5969V55H34.5969ZM34.5969 34.5968V33.5968H33.5969V34.5968H34.5969ZM55 34.5968V35.5968H56V34.5968H55ZM55 19.5161H56V18.5161H55V19.5161ZM34.5969 19.5161H33.5969V20.5161H34.5969V19.5161ZM19.5163 1H34.5969V-1H19.5163V1ZM20.5163 19.5161V0H18.5163V19.5161H20.5163ZM0 20.5161H19.5163V18.5161H0V20.5161ZM1 34.5968V19.5161H-1V34.5968H1ZM19.5163 33.5968H0V35.5968H19.5163V33.5968ZM20.5163 55V34.5968H18.5163V55H20.5163ZM34.5969 54H19.5163V56H34.5969V54ZM33.5969 34.5968V55H35.5969V34.5968H33.5969ZM55 33.5968H34.5969V35.5968H55V33.5968ZM54 19.5161V34.5968H56V19.5161H54ZM34.5969 20.5161H55V18.5161H34.5969V20.5161ZM33.5969 0V19.5161H35.5969V0H33.5969Z" fill="#4F93AD" mask="url(#path-1-inside-1)"/>
</svg>
