<svg width="45" height="67" viewBox="0 0 45 67" fill="none" xmlns="http://www.w3.org/2000/svg">
<path d="M35.6471 60.8607C35.6471 61.4454 35.3569 62.0512 34.7287 62.6534C34.0991 63.2568 33.1616 63.8233 31.962 64.3096C29.5655 65.2812 26.2202 65.8935 22.4996 65.8935C18.779 65.8935 15.4337 65.2812 13.0372 64.3096C11.8376 63.8233 10.9001 63.2568 10.2705 62.6534C9.64224 62.0512 9.35205 61.4454 9.35205 60.8607C9.35205 60.2761 9.64224 59.6703 10.2705 59.0681C10.9001 58.4646 11.8376 57.8981 13.0372 57.4118C15.4337 56.4403 18.779 55.8279 22.4996 55.8279C26.2202 55.8279 29.5655 56.4403 31.962 57.4118C33.1616 57.8981 34.0991 58.4646 34.7287 59.0681C35.3569 59.6703 35.6471 60.2761 35.6471 60.8607Z" fill="white" stroke="#0D3054"/>
<path d="M21.2023 56.9401C20.1653 55.8383 18.7106 54.2607 17.0408 52.3587C16.7121 51.9834 16.3771 51.6024 16.0372 51.2157C12.8131 47.5483 9.14312 43.3738 6.17285 38.8486C2.88862 33.8451 0.5 28.4706 0.5 22.9508C0.5 16.9555 2.21052 11.2619 6.44157 7.07765C10.6996 2.86668 16.4759 0.5 22.5 0.5C28.5241 0.5 34.3004 2.86668 38.5584 7.07765C42.7895 11.2619 44.5 16.9555 44.5 22.9508C44.5 28.1182 42.114 33.4918 38.825 38.5896C35.5408 43.6799 31.3986 48.4323 27.9589 52.3591C26.2892 54.2609 24.8346 55.8384 23.7977 56.9401C23.2793 57.4909 22.8654 57.9227 22.5814 58.2165C22.5529 58.2459 22.5258 58.2739 22.5 58.3006C22.4742 58.2739 22.4471 58.2459 22.4186 58.2165C22.1346 57.9227 21.7207 57.4909 21.2023 56.9401ZM40.6817 22.9508C40.6817 19.3922 39.6147 15.914 37.6161 12.956C35.6176 9.9981 32.7777 7.69353 29.456 6.33286C26.1344 4.97222 22.4798 4.6163 18.954 5.30988C15.4281 6.00346 12.1887 7.71559 9.64555 10.2306C7.10237 12.7457 5.36981 15.9507 4.66784 19.4408C3.96585 22.9309 4.32619 26.5485 5.70303 29.8357C7.07985 33.1229 9.41103 35.9316 12.4009 37.9073C15.3907 39.883 18.9052 40.9372 22.5 40.9372C27.3203 40.9372 31.9443 39.0435 35.3545 35.671C38.7648 32.2984 40.6817 27.7229 40.6817 22.9508Z" fill="white" stroke="#0D3054" stroke-linejoin="round"/>
<path d="M16.2295 15.4917V30.9835" stroke="#0D3054"/>
<path d="M28.771 15.4917V30.9835" stroke="#0D3054"/>
<path d="M28.771 23.2376L16.23 23.2376" stroke="#0D3054"/>
</svg>
