<svg width="17" height="16" viewBox="0 0 17 16" fill="none" xmlns="http://www.w3.org/2000/svg">
<path d="M11.7917 0.435059H4.97957C2.78151 0.435059 1 2.21688 1 4.41463V11.2267C1 13.4248 2.78182 15.2063 4.97989 15.2063H11.7914C13.9894 15.2063 15.7713 13.4245 15.7713 11.2264V4.41463C15.7713 2.21656 13.9894 0.435059 11.7914 0.435059H11.7917Z" stroke="#707070" stroke-width="0.8" stroke-miterlimit="10" stroke-linejoin="round"/>
<path d="M8.38546 11.3862C10.3547 11.3862 11.951 9.78986 11.951 7.82067C11.951 5.85147 10.3547 4.25513 8.38546 4.25513C6.41626 4.25513 4.81992 5.85147 4.81992 7.82067C4.81992 9.78986 6.41626 11.3862 8.38546 11.3862Z" stroke="#707070" stroke-width="0.8" stroke-miterlimit="10" stroke-linejoin="round"/>
<path d="M12.7151 4.25496C13.137 4.25496 13.479 3.91292 13.479 3.491C13.479 3.06908 13.137 2.72705 12.7151 2.72705C12.2931 2.72705 11.9511 3.06908 11.9511 3.491C11.9511 3.91292 12.2931 4.25496 12.7151 4.25496Z" fill="#707070"/>
</svg>
