<svg width="21" height="28" viewBox="0 0 21 28" fill="none" xmlns="http://www.w3.org/2000/svg">
<path d="M0.5 10.5C0.5 4.98663 4.98612 0.5 10.5 0.5C16.0139 0.5 20.5 4.98663 20.5 10.5C20.5 14.1981 18.1703 18.3219 15.7037 21.6312C13.2597 24.9103 10.7629 27.2837 10.5582 27.4766C10.5405 27.4929 10.5201 27.5 10.5 27.5C10.4797 27.5 10.4592 27.4928 10.4415 27.4763L10.1001 27.8416L10.443 27.4777C10.2463 27.2924 7.74486 24.9163 5.29629 21.6312C2.8297 18.3219 0.5 14.1981 0.5 10.5ZM4.16665 10.5C4.16665 13.9925 7.00752 16.8334 10.5 16.8334C13.9925 16.8334 16.8334 13.9924 16.8334 10.5C16.8334 7.00758 13.9924 4.16665 10.5 4.16665C7.00758 4.16665 4.16665 7.00752 4.16665 10.5Z" stroke="#707070"/>
</svg>
