<svg width="13" height="19" viewBox="0 0 13 19" fill="none" xmlns="http://www.w3.org/2000/svg">
<path d="M1.48254 1.49645L1.50136 1.47359C1.8184 1.16947 2.24965 0.998943 2.69918 1H10.538C11.4696 1.0027 12.2241 1.72275 12.2269 2.61182V16.3833C12.2278 16.8122 12.0492 17.2237 11.7307 17.5264C11.4136 17.8303 10.9824 18.0008 10.5329 18H2.69404C2.24482 18.0013 1.81365 17.8314 1.49623 17.528C1.17774 17.2254 0.999095 16.8138 0.999993 16.3849V2.61345C1.00247 2.19539 1.17556 1.79472 1.48254 1.49645ZM1.65537 16.3833C1.6552 16.6461 1.7648 16.8983 1.95996 17.0838C2.15439 17.2701 2.41859 17.3747 2.69404 17.3745H10.538C10.8135 17.3747 11.0777 17.2701 11.2721 17.0838C11.4677 16.8984 11.5779 16.6463 11.5784 16.3833V2.61345C11.5765 2.06585 11.1118 1.62236 10.538 1.62056H2.69404C2.41838 1.62101 2.15421 1.72618 1.95996 1.91287L1.94456 1.92594C1.75774 2.11039 1.65344 2.35694 1.65366 2.61345L1.65537 16.3833Z" fill="#707070" stroke="#707070" stroke-width="0.1"/>
<path d="M6.52402 17.0784C6.22087 17.0784 5.97513 16.837 5.97513 16.5392C5.97513 16.2414 6.22087 16 6.52402 16C6.82716 16 7.07291 16.2414 7.07291 16.5392C7.07291 16.837 6.82716 17.0784 6.52402 17.0784Z" fill="#707070"/>
<path d="M2.94216 2.70453H2.94517C3.17968 2.43619 3.49832 2.28521 3.83076 2.28491H9.39388C9.72579 2.28564 10.0438 2.43662 10.278 2.70453C10.5135 2.97167 10.6461 3.33469 10.6463 3.71333V14.4761C10.6461 14.8548 10.5135 15.2178 10.278 15.4849C10.0434 15.7533 9.72477 15.9042 9.39237 15.9045H3.82925C3.5049 15.9043 3.19333 15.7606 2.9602 15.5038L2.94216 15.4849C2.70659 15.2178 2.57406 14.8548 2.57379 14.4761V3.71162C2.57443 3.33357 2.70693 2.97129 2.94216 2.70453ZM3.34962 15.0259L3.36165 15.0413C3.48844 15.1792 3.65702 15.2558 3.83226 15.2554H9.39538C9.57648 15.2558 9.75022 15.1738 9.87802 15.0276C10.0067 14.8822 10.0792 14.6843 10.0795 14.4778V3.71162C10.0798 3.50532 10.0078 3.30741 9.87952 3.16183C9.75172 3.01569 9.57799 2.93369 9.39689 2.93404H3.83376C3.65266 2.93369 3.47893 3.01569 3.35113 3.16183C3.22284 3.30741 3.15085 3.50532 3.15116 3.71162L3.14815 14.4761C3.14841 14.6826 3.22092 14.8805 3.34962 15.0259Z" fill="#707070" stroke="#707070" stroke-width="0.1"/>
</svg>
