<svg width="288" height="61" viewBox="0 0 288 61" fill="none" xmlns="http://www.w3.org/2000/svg">
<g clip-path="url(#clip0)">
<path d="M6.7 0.0999756L3.73 5.60998C3.47 6.08998 3.16 6.45998 2.8 6.69998C2.44 6.94998 2.05 7.06998 1.63 7.06998C1.29 7.06998 0.96 6.99998 0.63 6.85998L0.94 5.86998C1.2 5.93998 1.42 5.98998 1.6 5.98998C2.01 5.98998 2.35 5.77998 2.61 5.35998L2.72 5.18998L0 0.0999756H1.36L3.37 4.09998L5.45 0.0999756H6.7Z" fill="#2F69B2"/>
<path d="M13.75 0.0999756V6.92998H12.48V3.99998H8.94999V6.91998H7.67999V0.0999756H8.94999V2.91998H12.48V0.0999756H13.75Z" fill="#2F69B2"/>
<path d="M15.78 0.0999756H17.03V4.94998L20.7 0.0999756H21.88V6.92998H20.63V2.08998L16.96 6.92998H15.78V0.0999756Z" fill="#2F69B2"/>
<path d="M29.38 3.96998C29.61 4.24998 29.72 4.60998 29.72 5.02998C29.72 5.62998 29.5 6.08998 29.06 6.41998C28.62 6.74998 27.98 6.91998 27.14 6.91998H23.9V0.0999756H26.95C27.72 0.0999756 28.32 0.249976 28.74 0.559976C29.17 0.869976 29.38 1.29998 29.38 1.85998C29.38 2.21998 29.29 2.52998 29.12 2.78998C28.95 3.04998 28.7 3.24998 28.37 3.37998C28.82 3.48998 29.15 3.68998 29.38 3.96998ZM25.14 3.00998H26.84C27.25 3.00998 27.56 2.92998 27.78 2.76998C28 2.60998 28.1 2.36998 28.1 2.04998C28.1 1.72998 27.99 1.48998 27.78 1.31998C27.57 1.14998 27.25 1.06998 26.84 1.06998H25.14V3.00998ZM28.44 4.92998C28.44 4.26998 27.99 3.93998 27.09 3.93998H25.14V5.94998H27.09C27.99 5.94998 28.44 5.60998 28.44 4.92998Z" fill="#2F69B2"/>
<path d="M36.39 5.85998V6.91998H31.27V0.0999756H36.25V1.15998H32.54V2.92998H35.84V3.96998H32.54V5.84998H36.39V5.85998Z" fill="#2F69B2"/>
<path d="M42.26 0.389976C42.7 0.589976 43.04 0.859976 43.27 1.22998C43.5 1.58998 43.62 2.02998 43.62 2.52998C43.62 3.01998 43.5 3.44998 43.27 3.81998C43.04 4.18998 42.7 4.46998 42.26 4.65998C41.82 4.85998 41.31 4.94998 40.72 4.94998H39.18V6.91998H37.91V0.0999756H40.72C41.31 0.0999756 41.82 0.189976 42.26 0.389976ZM41.92 3.52998C42.21 3.29998 42.35 2.95998 42.35 2.52998C42.35 2.08998 42.21 1.75998 41.92 1.52998C41.63 1.29998 41.21 1.17998 40.66 1.17998H39.18V3.88998H40.66C41.21 3.87998 41.63 3.75998 41.92 3.52998Z" fill="#2F69B2"/>
<path d="M46.3 6.57C45.74 6.27 45.31 5.85 44.99 5.32C44.68 4.79 44.52 4.19 44.52 3.52C44.52 2.85 44.68 2.25 45 1.72C45.32 1.19 45.76 0.77 46.31 0.47C46.86 0.17 47.49 0 48.17 0C48.73 0 49.24 0.1 49.7 0.29C50.16 0.48 50.55 0.77 50.87 1.14L50.05 1.91C49.56 1.38 48.95 1.11 48.23 1.11C47.76 1.11 47.34 1.21 46.97 1.42C46.6 1.62 46.31 1.91 46.1 2.27C45.89 2.63 45.79 3.05 45.79 3.51C45.79 3.97 45.89 4.38 46.1 4.75C46.31 5.11 46.6 5.4 46.97 5.6C47.34 5.81 47.76 5.91 48.23 5.91C48.95 5.91 49.56 5.64 50.05 5.1L50.87 5.88C50.55 6.25 50.16 6.53 49.7 6.73C49.24 6.92 48.72 7.02 48.16 7.02C47.48 7.02 46.85 6.87 46.3 6.57Z" fill="#2F69B2"/>
<path d="M56.54 5.33997H53.13L52.46 6.91997H51.15L54.22 0.0899658H55.47L58.55 6.91997H57.22L56.54 5.33997ZM56.12 4.34997L54.83 1.36997L53.55 4.34997H56.12Z" fill="#2F69B2"/>
<path d="M65.58 0.0999658V6.92997H64.33V1.16997H61.64L61.58 2.87997C61.55 3.83997 61.47 4.60997 61.35 5.20997C61.23 5.79997 61.03 6.25997 60.76 6.55997C60.49 6.86997 60.11 7.01997 59.63 7.01997C59.46 7.01997 59.23 6.98997 58.94 6.91997L59.03 5.81997C59.11 5.84997 59.21 5.85997 59.32 5.85997C59.72 5.85997 60 5.61997 60.16 5.14997C60.33 4.67997 60.43 3.93997 60.47 2.91997L60.57 0.0899658H65.58V0.0999658Z" fill="#2F69B2"/>
<path d="M72.64 2.95998C73.08 3.32998 73.3 3.86998 73.3 4.58998C73.3 5.33998 73.06 5.91998 72.58 6.31998C72.1 6.71998 71.42 6.91998 70.55 6.91998H67.61V0.0999756H68.86V2.40998H70.75C71.57 2.40998 72.2 2.58998 72.64 2.95998ZM71.63 5.60998C71.9 5.37998 72.03 5.04998 72.03 4.61998C72.03 3.78998 71.52 3.37998 70.49 3.37998H68.86V5.94998H70.49C70.98 5.94998 71.36 5.82998 71.63 5.60998Z" fill="#2F69B2"/>
<path d="M80.77 0.0999756V6.92998H79.5V3.99998H75.97V6.91998H74.7V0.0999756H75.97V2.91998H79.5V0.0999756H80.77Z" fill="#2F69B2"/>
<path d="M84.06 6.57C83.5 6.27 83.06 5.85 82.74 5.31C82.42 4.77 82.26 4.17 82.26 3.51C82.26 2.85 82.42 2.25 82.74 1.71C83.06 1.17 83.5 0.75 84.06 0.45C84.62 0.15 85.25 0 85.94 0C86.63 0 87.26 0.15 87.82 0.45C88.38 0.75 88.82 1.17 89.14 1.7C89.46 2.23 89.62 2.83 89.62 3.5C89.62 4.17 89.46 4.77 89.14 5.3C88.82 5.83 88.38 6.25 87.82 6.55C87.26 6.85 86.63 7 85.94 7C85.25 7 84.62 6.87 84.06 6.57ZM87.17 5.6C87.53 5.4 87.82 5.11 88.03 4.74C88.24 4.37 88.34 3.96 88.34 3.51C88.34 3.06 88.24 2.64 88.03 2.28C87.82 1.92 87.54 1.63 87.17 1.42C86.8 1.21 86.4 1.11 85.94 1.11C85.48 1.11 85.08 1.21 84.71 1.42C84.34 1.63 84.06 1.91 83.85 2.28C83.64 2.65 83.54 3.06 83.54 3.51C83.54 3.97 83.64 4.38 83.85 4.74C84.06 5.1 84.34 5.39 84.71 5.6C85.07 5.81 85.48 5.91 85.94 5.91C86.4 5.91 86.81 5.81 87.17 5.6Z" fill="#2F69B2"/>
<path d="M96.25 5.85998V6.91998H91.13V0.0999756H96.11V1.15998H92.4V2.92998H95.7V3.96998H92.4V5.84998H96.25V5.85998Z" fill="#2F69B2"/>
<path d="M105.09 5.33997H101.68L101.01 6.91997H99.7L102.77 0.0899658H104.02L107.1 6.91997H105.77L105.09 5.33997ZM104.67 4.34997L103.38 1.36997L102.1 4.34997H104.67Z" fill="#2F69B2"/>
<path d="M114.31 0.0999756V6.92998H113.04V3.99998H109.51V6.91998H108.24V0.0999756H109.51V2.91998H113.04V0.0999756H114.31Z" fill="#2F69B2"/>
<path d="M121.29 1.16998H119.03V6.91998H117.77V1.16998H115.52V0.0999756H121.29V1.16998Z" fill="#2F69B2"/>
<path d="M122.49 0.0999756H123.74V4.94998L127.41 0.0999756H128.59V6.92998H127.34V2.08998L123.67 6.92998H122.49V0.0999756Z" fill="#2F69B2"/>
<path d="M131.88 6.57C131.32 6.27 130.89 5.85 130.57 5.32C130.26 4.79 130.1 4.19 130.1 3.52C130.1 2.85 130.26 2.25 130.58 1.72C130.9 1.19 131.34 0.77 131.89 0.47C132.44 0.17 133.07 0 133.76 0C134.32 0 134.83 0.1 135.29 0.29C135.75 0.48 136.14 0.77 136.46 1.14L135.64 1.91C135.15 1.38 134.54 1.11 133.82 1.11C133.35 1.11 132.93 1.21 132.56 1.42C132.19 1.62 131.9 1.91 131.69 2.27C131.48 2.63 131.38 3.05 131.38 3.51C131.38 3.97 131.48 4.38 131.69 4.75C131.9 5.11 132.19 5.4 132.56 5.6C132.93 5.81 133.35 5.91 133.82 5.91C134.54 5.91 135.15 5.64 135.64 5.1L136.46 5.88C136.14 6.25 135.75 6.53 135.29 6.73C134.83 6.92 134.31 7.02 133.75 7.02C133.06 7.02 132.43 6.87 131.88 6.57Z" fill="#2F69B2"/>
<path d="M142.86 5.85998V6.91998H137.74V0.0999756H142.72V1.15998H139.01V2.92998H142.31V3.96998H139.01V5.84998H142.86V5.85998Z" fill="#2F69B2"/>
<path d="M150.43 0.0999756V6.92998H149.18V1.16998H145.64V6.91998H144.39V0.0999756H150.43Z" fill="#2F69B2"/>
<path d="M157.41 1.16998H155.15V6.91998H153.89V1.16998H151.64V0.0999756H157.41V1.16998Z" fill="#2F69B2"/>
<path d="M158.62 0.0999756H159.87V4.94998L163.54 0.0999756H164.72V6.92998H163.47V2.08998L159.8 6.92998H158.62V0.0999756Z" fill="#2F69B2"/>
<path d="M171.86 0.0999756V6.92998H170.6V4.34998C169.96 4.58998 169.35 4.70998 168.77 4.70998C167.9 4.70998 167.23 4.49998 166.76 4.07998C166.29 3.65998 166.05 3.05998 166.05 2.26998V0.0999756H167.31V2.13998C167.31 2.61998 167.45 2.98998 167.73 3.23998C168.01 3.48998 168.41 3.61998 168.93 3.61998C169.52 3.61998 170.08 3.49998 170.61 3.25998V0.0999756H171.86Z" fill="#2F69B2"/>
<path d="M179 5.85998V6.91998H173.88V0.0999756H178.86V1.15998H175.15V2.92998H178.45V3.96998H175.15V5.84998H179V5.85998Z" fill="#2F69B2"/>
<path d="M181.76 6.57C181.2 6.27 180.77 5.85 180.45 5.32C180.14 4.79 179.98 4.19 179.98 3.52C179.98 2.85 180.14 2.25 180.46 1.72C180.78 1.19 181.22 0.77 181.77 0.47C182.32 0.17 182.95 0 183.64 0C184.2 0 184.71 0.1 185.17 0.29C185.63 0.48 186.02 0.77 186.34 1.14L185.52 1.91C185.03 1.38 184.42 1.11 183.7 1.11C183.23 1.11 182.81 1.21 182.44 1.42C182.07 1.62 181.78 1.91 181.57 2.27C181.36 2.63 181.26 3.05 181.26 3.51C181.26 3.97 181.36 4.38 181.57 4.75C181.78 5.11 182.07 5.4 182.44 5.6C182.81 5.81 183.23 5.91 183.7 5.91C184.42 5.91 185.03 5.64 185.52 5.1L186.34 5.88C186.02 6.25 185.63 6.53 185.17 6.73C184.71 6.92 184.19 7.02 183.63 7.02C182.94 7.02 182.32 6.87 181.76 6.57Z" fill="#2F69B2"/>
<path d="M190.14 4.04998H188.87V6.92998H187.62V0.0999756H188.87V2.95998H190.18L192.14 0.0999756H193.49L191.16 3.40998L193.58 6.92998H192.15L190.14 4.04998Z" fill="#2F69B2"/>
<path d="M195.8 6.57C195.24 6.27 194.8 5.85 194.48 5.31C194.16 4.77 194 4.17 194 3.51C194 2.85 194.16 2.25 194.48 1.71C194.8 1.17 195.24 0.75 195.8 0.45C196.36 0.15 196.99 0 197.68 0C198.37 0 199 0.15 199.56 0.45C200.12 0.75 200.56 1.17 200.88 1.7C201.2 2.23 201.36 2.83 201.36 3.5C201.36 4.17 201.2 4.77 200.88 5.3C200.56 5.83 200.12 6.25 199.56 6.55C199 6.85 198.37 7 197.68 7C196.99 7 196.36 6.87 195.8 6.57ZM198.91 5.6C199.27 5.4 199.56 5.11 199.77 4.74C199.98 4.37 200.08 3.96 200.08 3.51C200.08 3.06 199.98 2.64 199.77 2.28C199.56 1.92 199.28 1.63 198.91 1.42C198.54 1.21 198.14 1.11 197.68 1.11C197.22 1.11 196.82 1.21 196.45 1.42C196.08 1.63 195.8 1.91 195.59 2.28C195.38 2.65 195.28 3.06 195.28 3.51C195.28 3.97 195.38 4.38 195.59 4.74C195.8 5.1 196.08 5.39 196.45 5.6C196.81 5.81 197.22 5.91 197.68 5.91C198.14 5.91 198.55 5.81 198.91 5.6Z" fill="#2F69B2"/>
<path d="M207.99 5.85998V6.91998H202.87V0.0999756H207.85V1.15998H204.14V2.92998H207.44V3.96998H204.14V5.84998H207.99V5.85998Z" fill="#2F69B2"/>
<path d="M213.58 6.57C213.02 6.27 212.59 5.85 212.27 5.32C211.96 4.79 211.8 4.19 211.8 3.52C211.8 2.85 211.96 2.25 212.28 1.72C212.6 1.19 213.04 0.77 213.59 0.47C214.14 0.17 214.77 0 215.46 0C216.02 0 216.53 0.1 216.99 0.29C217.45 0.48 217.84 0.77 218.16 1.14L217.34 1.91C216.85 1.38 216.24 1.11 215.52 1.11C215.05 1.11 214.63 1.21 214.26 1.42C213.89 1.62 213.6 1.91 213.39 2.27C213.18 2.63 213.08 3.05 213.08 3.51C213.08 3.97 213.18 4.38 213.39 4.75C213.6 5.11 213.89 5.4 214.26 5.6C214.63 5.81 215.05 5.91 215.52 5.91C216.24 5.91 216.85 5.64 217.34 5.1L218.16 5.88C217.84 6.25 217.45 6.53 216.99 6.73C216.53 6.92 216.01 7.02 215.45 7.02C214.76 7.02 214.14 6.87 213.58 6.57Z" fill="#2F69B2"/>
<path d="M223.8 0.389976C224.24 0.589976 224.58 0.859976 224.81 1.22998C225.04 1.58998 225.16 2.02998 225.16 2.52998C225.16 3.01998 225.04 3.44998 224.81 3.81998C224.58 4.18998 224.24 4.46998 223.8 4.65998C223.36 4.85998 222.85 4.94998 222.26 4.94998H220.72V6.91998H219.45V0.0999756H222.26C222.84 0.0999756 223.36 0.189976 223.8 0.389976ZM223.45 3.52998C223.74 3.29998 223.88 2.95998 223.88 2.52998C223.88 2.08998 223.74 1.75998 223.45 1.52998C223.16 1.29998 222.74 1.17998 222.19 1.17998H220.71V3.88998H222.19C222.75 3.87998 223.17 3.75998 223.45 3.52998Z" fill="#2F69B2"/>
<path d="M231.58 5.85998V6.91998H226.46V0.0999756H231.44V1.15998H227.73V2.92998H231.03V3.96998H227.73V5.84998H231.58V5.85998Z" fill="#2F69B2"/>
<path d="M239.87 5.84998V8.36998H238.7V6.91998H233.46V8.36998H232.28L232.29 5.84998H232.58C233.01 5.82998 233.31 5.50998 233.48 4.89998C233.65 4.28998 233.76 3.40998 233.8 2.25998L233.88 0.0999756H238.88V5.84998H239.87ZM234.7 4.58998C234.59 5.17998 234.41 5.59998 234.17 5.84998H237.63V1.16998H234.96L234.91 2.37998C234.89 3.25998 234.81 3.99998 234.7 4.58998Z" fill="#2F69B2"/>
<path d="M242.44 6.57C241.88 6.27 241.45 5.85 241.13 5.32C240.82 4.79 240.66 4.19 240.66 3.52C240.66 2.85 240.82 2.25 241.14 1.72C241.46 1.19 241.9 0.77 242.45 0.47C243 0.17 243.63 0 244.32 0C244.88 0 245.39 0.1 245.85 0.29C246.31 0.48 246.7 0.77 247.02 1.14L246.2 1.91C245.71 1.38 245.1 1.11 244.38 1.11C243.91 1.11 243.49 1.21 243.12 1.42C242.75 1.62 242.46 1.91 242.25 2.27C242.04 2.63 241.94 3.05 241.94 3.51C241.94 3.97 242.04 4.38 242.25 4.75C242.46 5.11 242.75 5.4 243.12 5.6C243.49 5.81 243.91 5.91 244.38 5.91C245.1 5.91 245.71 5.64 246.2 5.1L247.02 5.88C246.7 6.25 246.31 6.53 245.85 6.73C245.39 6.92 244.87 7.02 244.31 7.02C243.62 7.02 243 6.87 242.44 6.57Z" fill="#2F69B2"/>
<path d="M253.18 1.16998H250.92V6.91998H249.66V1.16998H247.41V0.0999756H253.18V1.16998Z" fill="#2F69B2"/>
<path d="M259.87 3.96998C260.1 4.24998 260.21 4.60998 260.21 5.02998C260.21 5.62998 259.99 6.08998 259.55 6.41998C259.11 6.74998 258.47 6.91998 257.63 6.91998H254.39V0.0999756H257.44C258.21 0.0999756 258.81 0.249976 259.23 0.559976C259.66 0.869976 259.87 1.29998 259.87 1.85998C259.87 2.21998 259.78 2.52998 259.61 2.78998C259.44 3.04998 259.19 3.24998 258.86 3.37998C259.31 3.48998 259.64 3.68998 259.87 3.96998ZM255.64 3.00998H257.34C257.75 3.00998 258.06 2.92998 258.28 2.76998C258.5 2.60998 258.6 2.36998 258.6 2.04998C258.6 1.72998 258.49 1.48998 258.28 1.31998C258.07 1.14998 257.75 1.06998 257.34 1.06998H255.64V3.00998ZM258.93 4.92998C258.93 4.26998 258.48 3.93998 257.58 3.93998H255.63V5.94998H257.58C258.48 5.94998 258.93 5.60998 258.93 4.92998Z" fill="#2F69B2"/>
<path d="M263.04 6.57C262.48 6.27 262.04 5.85 261.72 5.31C261.4 4.77 261.24 4.17 261.24 3.51C261.24 2.85 261.4 2.25 261.72 1.71C262.04 1.17 262.48 0.75 263.04 0.45C263.6 0.15 264.23 0 264.92 0C265.61 0 266.24 0.15 266.8 0.45C267.36 0.75 267.8 1.17 268.12 1.7C268.44 2.23 268.6 2.83 268.6 3.5C268.6 4.17 268.44 4.77 268.12 5.3C267.8 5.83 267.36 6.25 266.8 6.55C266.24 6.85 265.61 7 264.92 7C264.23 7 263.6 6.87 263.04 6.57ZM266.15 5.6C266.51 5.4 266.8 5.11 267.01 4.74C267.22 4.37 267.32 3.96 267.32 3.51C267.32 3.06 267.22 2.64 267.01 2.28C266.8 1.92 266.52 1.63 266.15 1.42C265.78 1.21 265.38 1.11 264.92 1.11C264.46 1.11 264.06 1.21 263.69 1.42C263.32 1.63 263.04 1.91 262.83 2.28C262.62 2.65 262.52 3.06 262.52 3.51C262.52 3.97 262.62 4.38 262.83 4.74C263.04 5.1 263.32 5.39 263.69 5.6C264.05 5.81 264.46 5.91 264.92 5.91C265.38 5.91 265.78 5.81 266.15 5.6Z" fill="#2F69B2"/>
<path d="M268.74 26.7999V21.6099H260.39V14.8199H255.09V21.6099H248.93V26.7999H255.09V43.7899C255.09 49.4899 258.04 52.3799 263.84 52.3799C265 52.3799 266.26 52.2699 267.7 52.0499L268.74 51.8899V46.9799L267.41 47.0999C264.19 47.3799 261.99 47.3699 261.17 46.6499C260.64 46.1899 260.39 45.2499 260.39 43.7799V26.7999H268.74Z" fill="#2F69B2"/>
<path d="M4.15002 30.84C4.15002 27.36 7.34002 25.38 11.11 25.38C14.3 25.38 17.32 26.77 18.54 29.79L20.98 28.4C19.41 24.86 15.82 22.6 11.12 22.6C5.20002 22.6 1.26002 26.26 1.26002 30.84C1.26002 41.28 18.84 36.76 18.84 44.65C18.84 48.31 15.42 50.11 11.36 50.11C7.01002 50.11 3.87002 48.14 2.83002 45L0.330017 46.45C1.72002 50.16 5.55002 52.89 11.35 52.89C17.56 52.89 21.74 49.41 21.74 44.65C21.74 34.03 4.15002 38.61 4.15002 30.84Z" fill="#2F69B2"/>
<path d="M59.74 22.6C55.85 22.6 52.14 24.46 50.05 28.52C48.54 24.69 45.23 22.6 41 22.6C37.29 22.6 33.81 24.22 31.66 28.23V23.24H28.76V52.25H31.66V36.06C31.66 28.63 35.89 25.38 40.65 25.38C45.12 25.38 48.08 28.34 48.08 33.85V52.24H50.98V36.05C50.98 28.62 54.81 25.37 59.68 25.37C64.21 25.37 67.4 28.33 67.4 33.84V52.23H70.3V33.85C70.3 26.6 65.89 22.6 59.74 22.6Z" fill="#2F69B2"/>
<path d="M147.91 26.08V23.24H139.26V14.83H136.3V23.24H126.09C122.41 23.41 118.96 25.02 117.1 29.33V23.24H114.2V52.25H117.1V36.58C117.1 29.17 121.77 26.1 126.74 26.08H136.3V44.94C136.3 51.55 140.31 53.41 147.91 52.25V49.64C141.99 50.16 139.26 50.04 139.26 44.94V26.08H147.91Z" fill="#2F69B2"/>
<path d="M106.92 37.42C106.75 29.21 100.05 22.6 91.79 22.6C83.43 22.6 76.65 29.38 76.65 37.74C76.65 46.1 83.43 52.88 91.79 52.88C96.78 52.88 101.19 50.46 103.95 46.74V52.24H106.94V37.74C106.93 37.63 106.92 37.53 106.92 37.42ZM91.79 50.05C85 50.05 79.48 44.53 79.48 37.74C79.48 30.95 85 25.43 91.79 25.43C98.58 25.43 104.1 30.95 104.1 37.74C104.1 44.53 98.58 50.05 91.79 50.05Z" fill="#2F69B2"/>
<path d="M164.45 34.37C160.37 33.33 157.87 32.56 157.87 30.17C157.87 27.37 160.63 26.12 163.37 26.12C164.39 26.12 165.32 26.29 166.15 26.59V26.58C166.15 26.58 166.21 26.6 166.32 26.64C166.33 26.64 166.34 26.65 166.34 26.65C166.47 26.7 166.65 26.79 166.87 26.91C167.36 27.16 167.8 27.48 168.18 27.84C168.91 28.49 169.68 29.42 170.2 30.76L174.58 28.28C173.85 26.04 171.93 24.27 171.93 24.27V24.28C169.85 22.18 166.84 20.99 163.37 20.99C157.14 20.99 152.62 24.85 152.62 30.17C152.62 36.51 158.33 37.99 162.91 39.18C167.05 40.25 169.59 41.04 169.59 43.51C169.59 46.49 166.49 47.55 163.58 47.55C162.47 47.55 161.46 47.39 160.55 47.1V47.12C160.42 47.08 160.31 47.03 160.19 46.99C160.09 46.96 160 46.92 159.9 46.89C156.82 45.65 155.7 43.15 155.43 42.34L155.42 42.35L151.43 44.72L151.23 44.84C152.18 47.61 153.88 49.03 153.88 49.03V49.02C156.1 51.36 159.5 52.7 163.58 52.7C170.2 52.7 174.83 48.93 174.83 43.52C174.85 37.03 169.08 35.56 164.45 34.37Z" fill="#2F69B2"/>
<path d="M231.03 20.8999C222.24 20.8999 215.08 28.0099 215 36.7799C215 36.8299 214.99 36.8799 214.99 36.9399V60.7899H220.26V48.7899C223.11 51.3799 226.88 52.9799 231.03 52.9799C239.88 52.9799 247.07 45.7799 247.07 36.9399C247.07 28.0899 239.88 20.8999 231.03 20.8999ZM231.03 47.8899C224.99 47.8899 220.08 42.9799 220.08 36.9399C220.08 30.8999 224.99 25.9899 231.03 25.9899C237.07 25.9899 241.98 30.8999 241.98 36.9399C241.98 42.9799 237.07 47.8899 231.03 47.8899Z" fill="#2F69B2"/>
<path d="M194.16 20.8999C185.31 20.8999 178.12 28.0999 178.12 36.9399C178.12 45.7899 185.32 52.9799 194.16 52.9799C200.15 52.9799 205.37 49.6799 208.12 44.8099L203.75 42.2199C201.88 45.5999 198.29 47.8999 194.16 47.8999C189 47.8999 184.67 44.3099 183.52 39.4999H209.97C210.11 38.6599 210.2 37.8299 210.2 36.9499C210.2 28.0899 203 20.8999 194.16 20.8999ZM183.52 34.3899C184.67 29.5799 189 25.9899 194.16 25.9899C199.32 25.9899 203.65 29.5799 204.8 34.3899H183.52Z" fill="#2F69B2"/>
<path d="M274.98 14.8199H280.19V15.6399H278.09V20.5999H277.09V15.6399H274.99V14.8199H274.98ZM286.83 20.5999L286.82 16.5499L284.65 19.9199H284.19L282 16.6199V20.5999H281.04V14.8199H281.86L284.44 18.7799L286.96 14.8199H287.78L287.79 20.5999H286.83Z" fill="#2F69B2"/>
</g>
<defs>
<clipPath id="clip0">
<path d="M0 0H287.8V60.79H0V0Z" fill="white"/>
</clipPath>
</defs>
</svg>
