<svg width="114" height="94" viewBox="0 0 114 94" fill="none" xmlns="http://www.w3.org/2000/svg">
<path d="M53.8737 0H59.6547C69.2362 0.321798 78.8266 1.93759 87.8143 5.33006C91.4674 6.71923 95.014 8.40074 98.3362 10.4652C101.595 12.4912 104.643 14.8911 107.208 17.7533C109.388 20.1894 111.204 22.9859 112.307 26.0747C112.93 27.7947 113.3 29.6031 113.445 31.4274V33.9633C113.298 35.7536 112.942 37.5325 112.334 39.2231C111.233 42.3391 109.409 45.1628 107.211 47.6148C104.933 50.1642 102.264 52.3398 99.4149 54.2184C93.1602 58.3089 86.0898 61.0215 78.8584 62.8095C68.2776 65.3816 57.2481 65.989 46.427 64.8604C37.4144 63.8837 28.4675 61.6742 20.2753 57.7287C16.2528 55.773 12.4162 53.3822 9.06676 50.4044C6.28842 47.9275 3.83867 45.0177 2.17983 41.6683C0.727205 38.7563 -0.0818223 35.5043 0.00655878 32.2432C0.0813428 28.2638 1.49317 24.3887 3.68004 21.0914C5.73547 17.9776 8.41863 15.3217 11.3692 13.0577C15.931 9.57462 21.1183 6.98211 26.4937 5.0128C35.2616 1.83561 44.571 0.303668 53.8737 0ZM53.1871 0.695718C44.9835 0.983523 36.7912 2.30697 28.9774 4.8519C23.5046 6.65804 18.1972 9.07153 13.4473 12.3575C9.37496 15.1948 5.66522 18.7209 3.23813 23.0924C1.25976 26.6254 0.292098 30.7612 0.777061 34.7995C1.2303 38.8197 3.04778 42.5884 5.53831 45.7406C8.61805 49.6407 12.6179 52.7273 16.9009 55.2065C21.0299 57.595 25.4603 59.4306 30.0085 60.8583C39.0982 63.6797 48.6524 64.8649 58.1523 64.7494C67.5207 64.593 76.9095 63.1721 85.777 60.0946C92.0158 57.9055 98.0507 54.9051 103.145 50.6401C105.846 48.3762 108.255 45.7225 110.025 42.6632C111.777 39.6469 112.826 36.1909 112.822 32.6919C112.826 29.4309 111.917 26.2039 110.374 23.3417C108.758 20.3413 106.513 17.7125 103.974 15.4531C101.124 12.915 97.9056 10.8142 94.5313 9.04433C90.3751 6.87786 85.9742 5.20089 81.4645 3.92729C76.4585 2.50866 71.3165 1.58859 66.1405 1.07644C61.8371 0.663992 57.5064 0.51669 53.1871 0.695718ZM13.7238 17.2479C21.6191 17.2411 29.5145 17.2185 37.4076 17.2094C37.4054 19.5844 37.394 21.9593 37.3759 24.3343C32.7778 24.3229 28.1797 24.3139 23.5817 24.2889C22.5029 26.1381 21.3631 28.0123 20.9166 30.1312C20.6809 31.1396 20.6991 32.1843 20.7376 33.2109C20.8781 35.7762 21.8888 38.235 23.4117 40.2859C28.0868 40.3245 32.7597 40.2633 37.4326 40.3584C37.4462 42.5929 37.4847 44.8296 37.4008 47.0618C34.6769 47.0527 31.9529 47.0822 29.229 47.1139C23.4865 47.1185 17.7417 47.1547 11.9969 47.157C9.46107 44.5803 7.32859 41.5233 6.24536 38.0469C5.30263 34.9921 5.04881 31.6744 5.82611 28.5562C6.40399 26.1744 7.42831 23.9128 8.74496 21.8505C9.8146 20.1962 11.0859 18.6552 12.6269 17.4201C12.9261 17.1527 13.3589 17.2751 13.7238 17.2479ZM40.4964 17.3454C43.762 17.3182 47.0253 17.3454 50.2909 17.3318C50.3997 17.368 50.692 17.2774 50.6421 17.4859C50.6535 21.0256 50.6421 24.5654 50.6467 28.1029C54.6623 28.1052 58.6803 28.1007 62.696 28.1052C62.8115 28.078 63.1016 28.1619 63.0518 27.942C63.0608 24.4068 63.0517 20.8693 63.0563 17.3318C66.349 17.334 69.6441 17.325 72.9368 17.3386C72.93 27.2984 72.9414 37.2583 72.9323 47.2182C69.9659 47.2204 66.9994 47.2182 64.0307 47.2227C63.7044 47.225 63.3781 47.2159 63.054 47.1955C62.9724 43.1776 62.9588 39.1574 62.8795 35.1394C58.8027 35.1394 54.7235 35.1349 50.6444 35.1394C50.5968 39.1506 50.5674 43.1617 50.5538 47.1751C47.2043 47.2522 43.8504 47.2159 40.4987 47.2091C40.4942 37.256 40.5032 27.3007 40.4964 17.3454ZM76.2681 17.3454C84.4286 17.3408 92.5892 17.3363 100.747 17.3454C102.898 19.3917 104.883 21.6964 106.118 24.4226C101.108 24.4294 96.0972 24.4249 91.0844 24.4249C91.0776 30.7612 91.0822 37.0997 91.0822 43.4359C91.064 44.7118 91.1229 45.9922 91.0504 47.2658C86.1056 47.2703 81.1631 47.3723 76.2183 47.3632C76.2591 37.3603 76.2364 27.3528 76.2681 17.3454ZM15.3463 50.1302C40.5463 50.1166 65.7485 50.128 90.9507 50.1234C93.4073 50.137 95.8638 50.0962 98.3181 50.1461C91.7008 54.9935 83.9527 58.1208 75.9984 59.9859C70.8338 61.1915 65.5513 61.8736 60.253 62.0934C50.0575 62.456 39.735 61.2957 30.0539 57.9871C25.5963 56.4438 21.2815 54.4224 17.4063 51.7188C16.7083 51.2067 15.9877 50.7149 15.3463 50.1302Z" fill="#8C8C8C"/>
<path d="M49.1806 3.45597C51.3153 3.27694 53.4591 3.25654 55.6007 3.18856C64.1079 3.15456 72.6514 4.18568 80.821 6.60596C85.401 7.97247 89.8767 9.78088 93.9626 12.285C94.996 12.9535 96.0679 13.5881 96.988 14.413C94.6787 14.4311 92.3695 14.4402 90.0625 14.3903C65.5537 14.3699 41.0427 14.3948 16.5317 14.354C19.9559 11.9292 23.6634 9.90325 27.5363 8.28747C34.3983 5.42075 41.7838 3.96359 49.1806 3.45597ZM7.65505 73.1932C8.23972 73.0142 8.75188 73.4855 9.02835 73.9501C9.45439 74.7886 9.434 75.7653 9.434 76.6809C9.39094 77.4582 9.37961 78.3125 8.90598 78.9674C8.62271 79.3414 8.13548 79.7221 7.64372 79.5227C7.03185 79.2847 6.66019 78.6502 6.54915 78.027C6.36559 77.0321 6.38145 76.0078 6.49476 75.0061C6.57861 74.2742 6.92533 73.4719 7.65505 73.1932ZM7.67997 73.6532C7.33778 73.9705 7.29699 74.4804 7.2426 74.92C7.19954 75.8741 7.20181 76.8304 7.24487 77.7845C7.29246 78.206 7.33551 78.6751 7.61199 79.0173C7.83181 79.253 8.24425 79.1397 8.36889 78.8632C8.55019 78.5051 8.54792 78.0927 8.58418 77.7029C8.6499 76.5222 8.67256 75.3234 8.47767 74.1518C8.44141 73.7711 8.05389 73.4493 7.67997 73.6532ZM14.8638 73.5127C15.0587 73.0527 15.8178 73.0187 16.0558 73.4561C16.2439 73.7756 16.2779 74.2017 16.1283 74.5438C16.0558 74.7569 15.7272 74.8475 15.589 74.6504C15.3533 74.3603 15.487 73.975 15.5187 73.6419C15.4666 73.66 15.3601 73.694 15.3079 73.7144C15.0337 74.4895 15.4213 75.4639 14.7731 76.0962C15.1629 76.2593 15.4439 76.6038 15.5187 77.023C15.7204 77.6417 15.5459 78.3193 15.7838 78.9266C15.8949 78.947 16.0082 78.9674 16.1215 78.9901C16.117 79.151 16.1102 79.3142 16.1056 79.4796C15.9674 79.5227 15.8314 79.5657 15.6955 79.6088C15.4281 79.5181 15.1266 79.4003 15.0315 79.1057C14.7663 78.3669 14.9227 77.5533 14.7142 76.8032C14.6281 76.52 14.3426 76.418 14.0865 76.3523C14.0683 77.227 14.0819 78.104 14.0774 78.981C14.1703 78.9788 14.3539 78.972 14.4445 78.9674C14.4513 79.1215 14.4581 79.2756 14.4672 79.432C13.9641 79.4343 13.4633 79.4343 12.9624 79.4343C12.9624 79.2824 12.9647 79.1283 12.9647 78.9788C13.0939 78.9765 13.2231 78.9765 13.3522 78.9788C13.3522 77.2361 13.359 75.4934 13.3477 73.7507C13.2525 73.7529 13.0599 73.7575 12.9647 73.7598C12.9647 73.6011 12.9624 73.4425 12.9624 73.2861C13.461 73.2861 13.9618 73.2861 14.4604 73.2861C14.4604 73.4425 14.4604 73.6011 14.4581 73.762C14.3629 73.7597 14.1771 73.7529 14.0842 73.7507C14.0774 74.4804 14.0706 75.2124 14.0887 75.9443C14.2519 75.8741 14.4604 75.8333 14.5329 75.6452C14.7663 74.954 14.5488 74.1767 14.8638 73.5127ZM28.6036 73.3926C28.9662 73.0527 29.5713 73.0958 29.9135 73.447C30.539 73.9637 30.6568 74.8181 30.7157 75.5772C30.7565 76.5064 30.7724 77.4559 30.514 78.3578C30.3441 78.9629 29.8546 79.4728 29.2314 79.611C28.5855 79.4796 28.096 78.9402 27.9238 78.317C27.6745 77.4196 27.6994 76.4769 27.738 75.5568C27.7901 74.7773 27.9328 73.8934 28.6036 73.3926ZM29.0455 73.626C28.8642 73.7008 28.7781 73.9025 28.7101 74.077C28.4518 74.843 28.5379 75.6633 28.5153 76.4588C28.5379 77.2633 28.4541 78.1199 28.8099 78.87C28.9481 79.228 29.4874 79.2235 29.6597 78.8949C29.8931 78.453 29.8591 77.9341 29.9112 77.4514C29.9475 76.3477 29.9769 75.2328 29.7843 74.1427C29.7322 73.7937 29.4104 73.4787 29.0455 73.626ZM38.6859 73.1751C38.9125 73.1751 39.1414 73.1751 39.3703 73.1751C39.7646 75.1081 40.1498 77.0457 40.5283 78.981C40.6235 78.9833 40.8138 78.9856 40.909 78.9878C40.909 79.1351 40.909 79.2824 40.9113 79.4297C40.3969 79.4297 39.8824 79.4297 39.368 79.4275C39.3725 79.2756 39.3793 79.1283 39.3884 78.981C39.4813 78.981 39.6671 78.981 39.7578 78.981C39.7034 78.623 39.6331 78.2694 39.5674 77.9159C39.164 77.8797 38.7584 77.8774 38.355 77.8751C38.2644 78.24 38.1964 78.6094 38.1284 78.981C38.2553 78.981 38.3822 78.981 38.5114 78.9856C38.5137 79.1329 38.5182 79.2802 38.5205 79.4275C38.0989 79.4275 37.6752 79.4275 37.2559 79.4252C37.2559 79.2824 37.2559 79.1419 37.2559 79.0037C37.3624 78.9901 37.4689 78.9765 37.5777 78.9652C37.9426 77.0367 38.3097 75.1059 38.6859 73.1751ZM38.4298 77.3879C38.7743 77.3879 39.121 77.3879 39.4677 77.3879C39.2864 76.4316 39.1051 75.4753 38.9352 74.5167C38.7471 75.4685 38.5862 76.427 38.4298 77.3879ZM43.0981 73.4969C43.2522 73.1479 43.7009 73.0912 44.0227 73.2091C44.4352 73.4493 44.5236 74.0204 44.3967 74.4487C44.3468 74.6821 44.0658 74.8566 43.8573 74.6957C43.5808 74.4215 43.7145 74.0045 43.7304 73.6646C43.6715 73.6895 43.5536 73.7393 43.4925 73.7643C43.4154 74.2946 43.4018 74.8294 43.3678 75.3665C43.3633 75.6543 43.1707 75.8832 43.0007 76.0962C43.4131 76.2639 43.6896 76.6401 43.7621 77.0752C43.9004 77.5987 43.855 78.1448 43.9185 78.6796C43.9344 78.8995 44.1882 78.9357 44.3423 79.0309C44.3423 79.1759 44.3423 79.3232 44.3423 79.4705C44.2131 79.5158 44.0839 79.5634 43.9548 79.6133C43.6873 79.5317 43.3859 79.432 43.2749 79.1487C42.9826 78.41 43.1435 77.5828 42.944 76.8259C42.8715 76.5381 42.5837 76.4225 42.3276 76.35C42.2551 77.2247 42.3004 78.104 42.2959 78.9788C42.3956 78.981 42.5928 78.981 42.6902 78.981C42.6902 79.1306 42.6902 79.2847 42.6902 79.4388C42.1871 79.4365 41.684 79.4388 41.181 79.4343C41.1787 79.2824 41.1764 79.1329 41.1764 78.9856C41.3147 78.981 41.4506 78.9788 41.5889 78.9765C41.5866 77.2383 41.5889 75.5024 41.5889 73.7643C41.4484 73.7597 41.3101 73.7552 41.1719 73.753C41.1741 73.5988 41.1787 73.4447 41.1832 73.2929C41.684 73.2884 42.1871 73.2906 42.6902 73.2929C42.6902 73.447 42.6902 73.6034 42.6902 73.7598C42.5565 73.7598 42.4228 73.762 42.2891 73.7643C42.2891 74.4895 42.2846 75.2124 42.2914 75.9375C42.4477 75.8696 42.6744 75.8673 42.7401 75.6769C43.0052 74.9722 42.7673 74.1699 43.0981 73.4969ZM53.1963 73.3881C53.5611 73.0482 54.1684 73.098 54.5061 73.4538C55.1293 73.9682 55.2471 74.8226 55.3061 75.5818C55.3401 76.5268 55.3673 77.4989 55.0862 78.4145C54.9004 78.9969 54.4268 79.466 53.8308 79.6178C53.1917 79.4955 52.7022 78.9674 52.5255 78.3578C52.258 77.4582 52.2898 76.5041 52.3238 75.575C52.3736 74.7841 52.5232 73.8957 53.1963 73.3881ZM53.6427 73.6215C53.4319 73.7054 53.3435 73.9501 53.2756 74.1473C53.0512 74.8951 53.1237 75.686 53.1033 76.4565C53.1237 77.2383 53.0557 78.0587 53.3617 78.7952C53.4455 79.0558 53.7696 79.2462 54.0211 79.0875C54.3361 78.9425 54.3769 78.5414 54.4268 78.2423C54.5605 76.9324 54.565 75.6044 54.4019 74.2968C54.3747 73.9184 54.0846 73.4561 53.6427 73.6215ZM70.741 73.2227C71.1059 73.0708 71.5365 73.1819 71.8084 73.4629C72.4769 74.034 72.5563 74.9767 72.6061 75.797C72.622 76.7216 72.6492 77.6802 72.3206 78.5618C72.0872 79.117 71.5365 79.6835 70.8815 79.5362C70.3059 79.3663 69.9297 78.7975 69.7802 78.24C69.5445 77.2995 69.5694 76.316 69.6306 75.3574C69.6873 74.5393 69.9547 73.617 70.741 73.2227ZM70.9337 73.6215C70.6957 73.7167 70.6141 74 70.5416 74.2243C70.349 74.9518 70.4079 75.7132 70.3943 76.4588C70.4124 77.2383 70.349 78.0542 70.6481 78.7907C70.7252 79.0173 70.9813 79.2144 71.2237 79.1261C71.575 79.04 71.6611 78.6343 71.7087 78.3284C71.8537 76.98 71.8628 75.6112 71.6883 74.2628C71.652 73.8935 71.3574 73.4629 70.9337 73.6215ZM80.361 73.2159C80.6442 73.1094 80.9842 73.1433 81.2289 73.3246C81.7252 73.651 81.9949 74.222 82.0855 74.7954C82.2578 75.8605 82.2623 76.9573 82.0697 78.0202C81.9586 78.6728 81.5507 79.3368 80.8935 79.5476C80.3519 79.6903 79.8828 79.2303 79.6086 78.8156C79.1894 78.07 79.203 77.1794 79.1758 76.35C79.2007 75.5455 79.2007 74.6889 79.5814 73.9592C79.7672 73.6464 80.0278 73.3677 80.361 73.2159ZM80.4698 73.6442C80.1049 73.9546 80.0664 74.4895 80.0165 74.9359C79.9848 75.831 79.9939 76.7262 80.012 77.6236C80.0415 78.0836 80.0822 78.5822 80.3542 78.9742C80.5377 79.2348 80.9547 79.1759 81.1111 78.9176C81.3015 78.6139 81.3105 78.24 81.349 77.8955C81.417 76.8689 81.417 75.8356 81.349 74.809C81.306 74.4645 81.3037 74.0906 81.102 73.7937C80.9729 73.583 80.6805 73.5535 80.4698 73.6442ZM95.2181 73.2136C95.5965 73.0618 95.9976 73.2113 96.299 73.4515C96.4577 73.3926 96.6208 73.3518 96.7908 73.3292C96.8225 73.9796 96.7931 74.6277 96.8021 75.2781C96.6548 75.2758 96.5098 75.2736 96.3648 75.2736C96.3081 74.7841 96.2945 74.256 96.0339 73.8232C95.8435 73.5377 95.3903 73.6056 95.2543 73.9071C94.9529 74.4872 95.0073 75.1648 94.9915 75.797C95.0028 76.7149 94.9439 77.6712 95.2611 78.5505C95.3382 78.8224 95.6373 79.1102 95.9274 78.9244C96.3874 78.555 96.4418 77.9137 96.469 77.3652C96.6412 77.3675 96.8135 77.3652 96.988 77.3607C96.9472 77.9001 96.9472 78.4825 96.6594 78.9606C96.3738 79.3889 95.8073 79.7334 95.2951 79.5068C94.6583 79.2507 94.4272 78.521 94.3003 77.9069C94.1212 76.8395 94.0646 75.7359 94.2663 74.6685C94.4 74.1019 94.6311 73.4447 95.2181 73.2136ZM104.564 73.4493C104.845 73.1592 105.307 73.0618 105.667 73.2544C106.146 73.5263 106.474 74.0181 106.592 74.5529C106.801 75.4322 106.776 76.3455 106.735 77.2406C106.678 77.9182 106.572 78.6638 106.066 79.1669C105.853 79.4093 105.545 79.5204 105.248 79.611C104.577 79.4683 104.086 78.8836 103.929 78.2377C103.707 77.3675 103.725 76.461 103.764 75.5727C103.816 74.8158 103.943 73.966 104.564 73.4493ZM105.06 73.6283C104.768 73.7983 104.704 74.1722 104.634 74.4759C104.494 75.3869 104.55 76.3115 104.55 77.2315C104.584 77.8298 104.573 78.4915 104.931 79.0037C105.185 79.2892 105.663 79.0943 105.754 78.7522C105.953 78.0836 105.937 77.3743 105.96 76.6831C105.953 75.7993 105.985 74.8996 105.776 74.034C105.713 73.7144 105.373 73.4969 105.06 73.6283ZM9.76033 73.2816C10.7257 73.2816 11.6911 73.2816 12.6565 73.2839C12.6565 73.9546 12.6565 74.6277 12.6565 75.2985C12.5047 75.2985 12.3551 75.2985 12.2055 75.3008C12.1738 74.8928 12.158 74.4804 12.0764 74.077C12.022 73.83 11.7727 73.7439 11.5551 73.6872C11.5302 75.4481 11.5529 77.2089 11.5461 78.972C11.6685 78.9697 11.7931 78.9697 11.9155 78.9697C11.9177 79.1215 11.9177 79.2734 11.92 79.4275C11.4373 79.4275 10.9569 79.4252 10.4742 79.4275C10.4719 79.2756 10.4696 79.1261 10.4651 78.9765C10.5988 78.9697 10.7325 78.9629 10.8662 78.9561C10.8572 77.2021 10.8685 75.4503 10.8594 73.6963C10.6668 73.7371 10.4266 73.762 10.3586 73.9886C10.2317 74.4101 10.2272 74.8543 10.1977 75.2917C10.0504 75.294 9.9031 75.294 9.7558 75.2962C9.75806 74.6277 9.75806 73.9546 9.76033 73.2816ZM16.5022 73.2816C17.1594 73.2974 17.8257 73.2295 18.4761 73.3541C19.0403 73.4697 19.3621 74.0566 19.412 74.5937C19.4619 75.2237 19.4732 75.9489 19.0381 76.4565C18.6823 76.8576 18.1044 76.8395 17.6127 76.835C17.6127 77.5488 17.6104 78.2649 17.6149 78.9788C17.7101 78.9765 17.8959 78.9674 17.9888 78.9652C17.9934 79.1193 17.9979 79.2711 18.0047 79.4275C17.5039 79.4297 17.003 79.4297 16.5022 79.4297C16.5022 79.2779 16.5045 79.1261 16.5068 78.9742C16.6337 78.972 16.7606 78.972 16.8897 78.972C16.8875 77.2293 16.892 75.4888 16.8875 73.7462C16.7923 73.7484 16.6019 73.7507 16.5068 73.753C16.5045 73.5966 16.5045 73.438 16.5022 73.2816ZM17.6172 73.7008C17.6104 74.5914 17.6104 75.4843 17.6172 76.3749C17.8823 76.3704 18.2291 76.4248 18.3945 76.1551C18.6483 75.6792 18.6415 75.1127 18.6098 74.5892C18.5622 74.2832 18.5101 73.898 18.1996 73.7462C18.0092 73.6963 17.8098 73.7099 17.6172 73.7008ZM19.7451 73.2816C20.246 73.2793 20.7468 73.2793 21.2453 73.2793C21.2431 73.4357 21.2408 73.5943 21.2385 73.753C21.1434 73.7507 20.953 73.7484 20.8556 73.7462C20.8556 74.4351 20.8533 75.1263 20.8578 75.8152C21.3677 75.8016 21.9751 75.8197 22.2946 76.2888C22.707 76.9233 22.6685 77.746 22.5461 78.4621C22.4691 78.9878 21.9819 79.3663 21.4697 79.4116C20.8963 79.4479 20.323 79.4139 19.7519 79.4275C19.7497 79.2734 19.7497 79.1215 19.7474 78.9697C19.8494 78.9697 20.0511 78.9652 20.153 78.9652C20.1598 77.2247 20.1757 75.4866 20.144 73.7462C20.0103 73.7462 19.8788 73.7461 19.7474 73.7484C19.7474 73.5943 19.7451 73.438 19.7451 73.2816ZM20.8578 76.3795C20.8556 77.2474 20.8556 78.1176 20.8601 78.9878C21.1592 78.981 21.5581 79.006 21.6895 78.6683C21.9184 78.0383 21.8867 77.3176 21.6782 76.6899C21.5581 76.3387 21.1524 76.3681 20.8578 76.3795ZM22.6798 73.2861C23.1852 73.2793 23.6906 73.2816 24.1936 73.2816C24.1936 73.438 24.1936 73.5943 24.1936 73.7507C24.0667 73.7507 23.9398 73.7484 23.8129 73.7507C23.7449 75.4911 23.7993 77.2361 23.8084 78.9788C23.9036 78.9765 24.0917 78.9742 24.1868 78.972C24.1891 79.1238 24.1914 79.2756 24.1959 79.4297C23.6996 79.4207 23.2011 79.4615 22.7093 79.4116C22.6028 79.2983 22.7161 79.1057 22.7116 78.9652C22.8022 78.9674 22.9835 78.9742 23.0742 78.9788C23.0764 77.2383 23.0742 75.4979 23.0742 73.7552C22.9359 73.7507 22.7999 73.7484 22.664 73.7439C22.6708 73.5898 22.6753 73.438 22.6798 73.2861ZM24.5086 73.2816C25.474 73.2793 26.4394 73.2793 27.4048 73.2793C27.4048 73.9524 27.4048 74.6254 27.4048 75.2962C27.253 75.2962 27.1034 75.2962 26.9516 75.2962C26.9199 74.8679 26.9199 74.4283 26.802 74.0113C26.7318 73.7915 26.4961 73.7439 26.3035 73.6895C26.2853 75.4503 26.3012 77.2111 26.2967 78.9697C26.4213 78.9697 26.5482 78.9674 26.6728 78.9697C26.6796 79.0717 26.6932 79.2734 26.7 79.3754C26.2196 79.4977 25.7029 79.4003 25.2089 79.4252C25.2202 79.2711 25.2361 79.117 25.252 78.9652C25.3426 78.9674 25.5262 78.9697 25.6168 78.972C25.6145 77.2134 25.6236 75.4549 25.6123 73.6963C25.4174 73.7416 25.1726 73.7779 25.1092 74.0022C24.9913 74.4215 24.9823 74.8634 24.9506 75.2962C24.8032 75.2962 24.6559 75.2962 24.5086 75.2962C24.5086 74.6277 24.5109 73.9546 24.5086 73.2816ZM31.0715 73.2861C31.9802 73.2793 32.889 73.2702 33.7955 73.2906C33.7773 73.9116 33.8181 74.5325 33.7796 75.1512C33.7048 75.371 33.4714 75.1965 33.3105 75.2101C33.3105 74.7546 33.2652 74.3014 33.1541 73.8595C32.8618 73.7099 32.5309 73.694 32.2091 73.7258C32.1593 74.4441 32.2046 75.1648 32.1887 75.8854C32.2839 75.8854 32.4697 75.8832 32.5649 75.8832C32.5649 75.6747 32.5649 75.4662 32.5649 75.2577C32.7258 75.2577 32.8867 75.26 33.0476 75.2622C33.0476 75.8605 33.0476 76.4588 33.0476 77.057C32.889 77.057 32.7304 77.057 32.574 77.0593C32.5649 76.835 32.5536 76.6106 32.54 76.3885C32.4222 76.393 32.3066 76.3976 32.1887 76.4044C32.1887 77.2587 32.1887 78.1131 32.1887 78.9674C32.5377 78.9312 33.0386 79.0853 33.2425 78.7068C33.4215 78.2626 33.3445 77.7709 33.3853 77.3063C33.5462 77.3063 33.7071 77.3063 33.8702 77.3086C33.8725 78.0156 33.8702 78.7227 33.8702 79.4297C32.9388 79.4275 32.0052 79.4297 31.0738 79.4275C31.0738 79.2756 31.0738 79.1261 31.076 78.9742C31.2097 78.9697 31.3457 78.9674 31.4817 78.9652C31.4772 77.227 31.4794 75.4888 31.4794 73.7507C31.3457 73.7484 31.2097 73.7484 31.076 73.7462C31.076 73.6328 31.0738 73.4017 31.0715 73.2861ZM44.7207 73.2816C45.2193 73.2816 45.7178 73.277 46.2164 73.2884C46.2141 73.3994 46.2119 73.626 46.2096 73.7371C46.0782 73.7393 45.9467 73.7439 45.8176 73.7484C45.8198 75.4934 45.8176 77.2383 45.8176 78.9856C46.1937 78.9856 46.5699 78.9856 46.9461 78.9878C46.9484 77.2383 46.9461 75.4911 46.9461 73.7439C46.8169 73.7439 46.6878 73.7439 46.5586 73.7462C46.5586 73.592 46.5586 73.438 46.5586 73.2839C47.0526 73.2816 47.5444 73.2816 48.0384 73.2816C48.0361 73.4334 48.0362 73.5853 48.0362 73.7394C47.907 73.7416 47.7755 73.7461 47.6464 73.7507C47.6554 75.4956 47.6486 77.2406 47.6509 78.9856C47.8413 78.9856 48.0316 78.9856 48.222 78.9878C48.2265 79.7107 48.2242 80.4359 48.2242 81.1588C48.1155 81.1588 47.8934 81.1588 47.7823 81.1588C47.7325 80.658 47.7529 80.1345 47.5625 79.6609C47.5059 79.4456 47.2475 79.4751 47.0776 79.4433C46.2889 79.4161 45.5003 79.4433 44.7139 79.432C44.7139 79.2824 44.7139 79.1351 44.7162 78.9901C44.8476 78.9833 44.9791 78.9765 45.1128 78.972C45.106 77.2315 45.1105 75.4911 45.1105 73.7507C44.9768 73.7484 44.8431 73.7461 44.7117 73.7439C44.7162 73.5853 44.7185 73.4334 44.7207 73.2816ZM48.5392 73.2816C49.0355 73.2816 49.5318 73.2816 50.0281 73.2816C50.0259 73.438 50.0259 73.5943 50.0281 73.7507C49.899 73.7507 49.7698 73.7507 49.6429 73.753C49.6497 74.8906 49.6225 76.0282 49.6587 77.1658C50.01 76.2254 50.3771 75.294 50.742 74.3603C50.8236 74.1654 50.844 73.9546 50.8621 73.7484C50.7601 73.7484 50.5539 73.753 50.4519 73.753C50.4519 73.6351 50.4496 73.3994 50.4496 73.2816C50.9527 73.2793 51.4581 73.2793 51.9634 73.2816C51.9634 73.3972 51.9634 73.6306 51.9634 73.7462C51.832 73.7484 51.7006 73.7484 51.5669 73.753C51.5646 75.4911 51.5691 77.227 51.5646 78.9652C51.696 78.9674 51.8297 78.9697 51.9634 78.9765C51.9634 79.1261 51.9634 79.2756 51.9634 79.4275C51.4604 79.4297 50.955 79.4275 50.4542 79.4297C50.4542 79.2756 50.4519 79.1238 50.4519 78.972C50.5539 78.972 50.7556 78.9697 50.8575 78.9697C50.8575 77.7868 50.8779 76.6038 50.8462 75.4209C50.4474 76.3183 50.1188 77.2429 49.7471 78.1493C49.6293 78.4077 49.6429 78.6955 49.6361 78.9742C49.7335 78.972 49.9239 78.9674 50.0213 78.9652C50.0259 79.117 50.0304 79.2711 50.0372 79.4275C49.5364 79.4297 49.0355 79.4297 48.5347 79.4275C48.5392 79.2734 48.546 79.1193 48.5528 78.9652C48.648 78.9674 48.8361 78.9742 48.9313 78.9765C48.9336 77.2338 48.9313 75.4934 48.9313 73.7507C48.7999 73.7484 48.6707 73.7484 48.5415 73.7484C48.537 73.5943 48.537 73.4357 48.5392 73.2816ZM55.6641 73.2816C56.174 73.2793 56.6839 73.2771 57.1938 73.2861C57.1915 73.3994 57.1893 73.6306 57.187 73.7439C57.0533 73.7461 56.9219 73.7507 56.7904 73.7552C56.7904 74.46 56.7927 75.1648 56.7881 75.8696C57.1847 75.8786 57.5813 75.8764 57.9779 75.8764C57.9779 75.167 57.9779 74.4555 57.9779 73.7462C57.8782 73.7462 57.6833 73.7484 57.5858 73.7507C57.5836 73.592 57.5836 73.4334 57.5836 73.2771C58.0889 73.2771 58.592 73.2771 59.0951 73.2771C59.0951 73.4312 59.0951 73.5853 59.0951 73.7439C58.9569 73.7461 58.8209 73.7507 58.6872 73.7552C58.6827 75.4956 58.728 77.2315 58.7212 78.9742C58.8141 78.9742 58.9977 78.972 59.0883 78.9697C59.0906 79.083 59.0974 79.3096 59.0997 79.4229C58.5943 79.4297 58.0867 79.4252 57.5813 79.4252C57.5813 79.2734 57.5813 79.1238 57.5813 78.9742C57.7127 78.9697 57.8465 78.9674 57.9802 78.9652C57.9802 78.1063 57.9779 77.2474 57.9802 76.3863C57.5813 76.384 57.1847 76.384 56.7904 76.3885C56.7949 77.2497 56.7859 78.1108 56.7949 78.972C56.8924 78.972 57.085 78.9674 57.1825 78.9674C57.187 79.0785 57.1938 79.3051 57.1983 79.4184C56.6884 79.432 56.1763 79.4275 55.6664 79.4275C55.6664 79.2734 55.6664 79.1215 55.6664 78.9697C55.7661 78.972 55.9678 78.972 56.0675 78.972C56.0743 77.2315 56.0675 75.4911 56.0698 73.7484C55.9338 73.7461 55.8001 73.7462 55.6664 73.7462C55.6641 73.592 55.6641 73.438 55.6641 73.2816ZM59.4328 73.2816C60.337 73.2793 61.2412 73.2793 62.1454 73.2816C62.1477 73.9388 62.1658 74.5982 62.1295 75.2554C61.989 75.2577 61.8485 75.2622 61.7103 75.2668C61.6582 74.7977 61.6332 74.324 61.5177 73.8663C61.2185 73.7054 60.8809 73.7122 60.5523 73.7167C60.55 74.4396 60.5523 75.1602 60.55 75.8832C60.6384 75.8854 60.8106 75.89 60.899 75.8922C60.9013 75.6837 60.9013 75.4753 60.9035 75.2668C61.0712 75.2622 61.2389 75.26 61.4066 75.2577C61.4066 75.856 61.4066 76.4542 61.4066 77.0525C61.2503 77.0548 61.0939 77.0593 60.9398 77.0638C60.9194 76.8418 60.9013 76.6174 60.8877 76.3953C60.8016 76.3953 60.6339 76.3976 60.5477 76.3976C60.55 77.2542 60.5477 78.1108 60.5477 78.9674C60.899 78.9312 61.4112 79.0875 61.6038 78.6955C61.7692 78.2513 61.7103 77.7686 61.7443 77.3063C61.9029 77.3063 62.0661 77.3063 62.227 77.3086C62.227 78.0156 62.227 78.7227 62.227 79.4297C61.2933 79.4297 60.3619 79.4297 59.4282 79.4275C59.4282 79.2756 59.4282 79.1261 59.4305 78.9765C59.5642 78.9697 59.7002 78.9652 59.8362 78.9606C59.8339 77.2247 59.8362 75.4888 59.8362 73.7507C59.7002 73.7484 59.5642 73.7484 59.4305 73.7484C59.4328 73.592 59.4328 73.438 59.4328 73.2816ZM65.8257 73.2816C66.3265 73.2816 66.8273 73.2816 67.3282 73.2816C67.3259 73.438 67.3259 73.5943 67.3259 73.753C67.2307 73.753 67.0426 73.7507 66.9497 73.7507C66.9474 74.46 66.9497 75.1693 66.9474 75.8786C67.3463 75.8786 67.7429 75.8786 68.1417 75.8764C68.1327 75.167 68.1689 74.4555 68.1145 73.7462C68.0216 73.7484 67.8358 73.7529 67.7429 73.7552C67.7406 73.6374 67.7406 73.404 67.7406 73.2839C68.246 73.2816 68.7536 73.2793 69.259 73.2839C69.259 73.4357 69.2567 73.5898 69.259 73.7462C69.1252 73.7484 68.9915 73.7507 68.8601 73.7552C68.8578 75.4911 68.8624 77.227 68.8578 78.9652C68.9893 78.9674 69.123 78.972 69.259 78.9788C69.2567 79.1283 69.2567 79.2779 69.259 79.4275C68.7536 79.4297 68.246 79.4297 67.7406 79.4275C67.7406 79.2756 67.7429 79.1261 67.7474 78.9765C67.8788 78.972 68.0126 78.9674 68.1463 78.9629C68.1463 78.1063 68.1463 77.2497 68.1463 76.3931C67.7474 76.3863 67.3508 76.3862 66.952 76.3885C66.952 77.2497 66.952 78.1108 66.952 78.972C67.0449 78.972 67.233 78.9697 67.3259 78.9697C67.3282 79.1215 67.3304 79.2734 67.335 79.4275C66.8341 79.4297 66.3333 79.4297 65.8325 79.4297C65.8325 79.2779 65.8302 79.1261 65.8325 78.9765C65.9617 78.9742 66.0931 78.972 66.2245 78.9697C66.2223 77.2293 66.2268 75.4911 66.2245 73.7484C66.0931 73.7484 65.9639 73.7484 65.8348 73.7507C65.8257 73.5943 65.8234 73.438 65.8257 73.2816ZM72.9506 73.2861C73.857 73.2793 74.7635 73.2793 75.6722 73.2861C75.6745 73.8277 75.6813 74.3693 75.6768 74.911C75.6745 75.0492 75.6677 75.3642 75.4366 75.269C75.1442 75.3302 75.1918 74.9767 75.1737 74.8045C75.1193 74.4532 75.2009 73.9501 74.8247 73.762C74.5777 73.7008 74.3216 73.7258 74.0701 73.719C74.0701 74.4396 74.0723 75.1602 74.0678 75.8809C74.1834 75.8832 74.3012 75.8877 74.4191 75.8922C74.4213 75.6815 74.4213 75.4707 74.4258 75.2622C74.5913 75.26 74.759 75.26 74.9267 75.26C74.9244 75.8582 74.9267 76.4588 74.9267 77.0593C74.759 77.057 74.589 77.0548 74.4236 77.0548C74.4213 76.8327 74.4213 76.6129 74.4213 76.3931C74.3035 76.3953 74.1856 76.3998 74.0678 76.4044C74.0678 77.2587 74.0701 78.1131 74.0678 78.9674C74.4191 78.9357 74.9312 79.0943 75.1261 78.6955C75.2757 78.2491 75.2326 77.7709 75.2643 77.3086C75.4207 77.3086 75.5816 77.3063 75.7425 77.3086C75.7448 78.0156 75.7425 78.7227 75.7425 79.432C74.8111 79.432 73.8797 79.432 72.9483 79.4297C72.9483 79.2756 72.9483 79.1238 72.9506 78.972C73.0503 78.9742 73.2497 78.9765 73.3494 78.9788C73.3607 77.2383 73.3494 75.5002 73.3539 73.7598C73.218 73.7552 73.082 73.7484 72.9483 73.7462C72.9528 73.6306 72.9506 73.3994 72.9506 73.2861ZM82.5546 73.2816C83.4045 73.2816 84.2543 73.2793 85.1041 73.2839C85.1086 73.8821 85.1041 74.4804 85.1064 75.0787C84.9999 75.0809 84.7846 75.0832 84.6781 75.0855C84.6055 74.6821 84.6486 74.2402 84.4469 73.8731C84.2588 73.651 83.9257 73.7688 83.6719 73.7303C83.6696 74.4328 83.6719 75.1353 83.6696 75.8378C84.2226 75.8446 84.916 75.8718 85.2287 76.4157C85.5211 77.0095 85.5007 77.7074 85.4191 78.3488C85.3579 78.904 84.8866 79.4388 84.3041 79.4297C83.7217 79.4411 83.1393 79.4275 82.5546 79.432C82.5569 79.2756 82.5637 79.1215 82.5705 78.9697C82.6657 78.972 82.856 78.9765 82.949 78.9788C82.949 77.2361 82.9535 75.4911 82.949 73.7484C82.8538 73.7529 82.6634 73.7597 82.5682 73.762C82.5592 73.5988 82.5569 73.4402 82.5546 73.2816ZM83.6719 76.3296C83.6696 77.2134 83.6651 78.0949 83.6741 78.981C83.9733 78.981 84.3903 79.0286 84.5126 78.6728C84.7392 78.0428 84.7234 77.3222 84.5262 76.6877C84.4106 76.3137 83.9778 76.3545 83.6719 76.3296ZM85.7998 73.2839C86.2825 73.2816 86.7629 73.2793 87.2456 73.2839C87.2456 73.3972 87.2434 73.626 87.2434 73.7394C87.1505 73.7394 86.9669 73.7371 86.874 73.7371C86.8717 75.4798 86.874 77.2202 86.8717 78.9629C87.1754 78.9629 87.4813 78.9629 87.7895 78.9629C87.7918 77.2202 87.7895 75.4798 87.7895 73.7371C87.6966 73.7393 87.5153 73.7394 87.4247 73.7394C87.4224 73.5875 87.4224 73.4357 87.4224 73.2839C87.9142 73.2839 88.4082 73.2816 88.9 73.2861C88.9 73.3994 88.8977 73.6283 88.8954 73.7416C88.8048 73.7416 88.6212 73.7393 88.5283 73.7371C88.5283 75.4798 88.526 77.2225 88.5306 78.9674C88.8342 78.9652 89.1402 78.9652 89.4461 78.9652C89.4461 77.2247 89.4461 75.4866 89.4461 73.7462C89.3079 73.7416 89.1719 73.7393 89.0382 73.7371C89.0427 73.5875 89.0473 73.4402 89.0541 73.2929C89.5322 73.2861 90.0104 73.2884 90.4908 73.2884C90.4885 73.4402 90.4885 73.592 90.4885 73.7439C90.3956 73.7439 90.2143 73.7439 90.1214 73.7439C90.1214 75.4911 90.1214 77.2383 90.1214 78.9856C90.3095 78.9856 90.4999 78.9856 90.6902 78.9856C90.697 79.7107 90.6902 80.4359 90.6948 81.1611C90.5452 81.1611 90.3956 81.1611 90.2506 81.1634C90.2189 80.6104 90.1758 80.0507 89.9923 79.5249C89.4688 79.3957 88.9294 79.4388 88.3969 79.4365C87.5334 79.4365 86.67 79.4343 85.8044 79.4365C85.8021 79.287 85.8021 79.1397 85.7998 78.9924C85.8995 78.9901 86.1012 78.9856 86.2009 78.9856C86.1987 77.2383 86.2009 75.4911 86.2009 73.7439C86.0672 73.7416 85.9358 73.7393 85.8021 73.7371C85.8021 73.6215 85.7998 73.3972 85.7998 73.2839ZM91.0007 73.2839C91.9026 73.2771 92.8046 73.2816 93.7065 73.2816C93.7043 73.941 93.7156 74.6028 93.6952 75.2668C93.5479 75.2645 93.4029 75.2622 93.2578 75.2622C93.2216 74.8294 93.2329 74.3829 93.0924 73.9682C92.9066 73.6147 92.442 73.7552 92.1225 73.719C92.1202 74.4419 92.1225 75.1648 92.1202 75.8877C92.2086 75.89 92.3876 75.8922 92.4783 75.8945C92.476 75.6837 92.4783 75.4775 92.4783 75.269C92.6437 75.2668 92.8137 75.2668 92.9813 75.2668C92.9791 75.865 92.9791 76.4633 92.9791 77.0638C92.8114 77.0616 92.6437 77.0616 92.4783 77.0616C92.4783 76.8418 92.476 76.6197 92.476 76.4021C92.3876 76.4021 92.2109 76.4044 92.1225 76.4044C92.1202 77.261 92.1225 78.1176 92.1202 78.972C92.476 78.9402 92.9927 79.0943 93.1808 78.6864C93.3303 78.2445 93.2918 77.7709 93.3167 77.3131C93.4369 77.3109 93.6771 77.3109 93.7994 77.3109C93.8062 78.0179 93.8017 78.7272 93.804 79.4343C92.8703 79.4343 91.9366 79.4343 91.003 79.432C91.0052 79.2802 91.0052 79.1283 91.0075 78.9765C91.1095 78.9742 91.3112 78.9742 91.4109 78.9742C91.4064 77.2315 91.4449 75.4888 91.3905 73.7484C91.293 73.7507 91.1027 73.7529 91.0075 73.7552C91.0052 73.6374 91.0007 73.4017 91.0007 73.2839ZM97.2372 73.2884C98.2026 73.2725 99.168 73.2861 100.136 73.2816C100.127 73.9569 100.179 74.6322 100.133 75.3075C99.9838 75.3008 99.832 75.2962 99.6847 75.2917C99.6485 74.8724 99.6779 74.4373 99.551 74.034C99.4876 73.8028 99.236 73.728 99.0275 73.7076C99.0298 74.5892 99.0094 75.4707 99.0502 76.3523C99.0275 77.227 98.9981 78.104 99.0615 78.9788C99.1522 78.9788 99.3312 78.9765 99.4218 78.9742C99.4196 79.1261 99.4218 79.2779 99.4218 79.432C98.9346 79.4297 98.4496 79.432 97.9624 79.4297C97.9669 79.2734 97.9715 79.1193 97.9805 78.9674C98.0735 78.9697 98.2593 78.9765 98.3522 78.981C98.3386 77.2111 98.3862 75.4367 98.3295 73.6668C97.5726 73.8323 97.8061 74.741 97.6837 75.303C97.5341 75.3008 97.3868 75.2985 97.2395 75.2985C97.2395 74.6254 97.2418 73.9569 97.2372 73.2884ZM100.442 73.2884C101.004 73.2861 101.57 73.2635 102.134 73.2929C102.735 73.311 103.206 73.8776 103.227 74.4555C103.247 74.8384 103.263 75.2577 103.057 75.5976C102.923 75.8152 102.701 75.9466 102.499 76.0939C102.826 76.2729 103.161 76.5018 103.281 76.8735C103.458 77.4151 103.431 78.0066 103.302 78.5573C103.2 79.0807 102.672 79.4479 102.15 79.4297C101.582 79.4388 101.015 79.4275 100.448 79.432C100.448 79.2802 100.448 79.1283 100.448 78.9788C100.582 78.9742 100.718 78.9697 100.854 78.9674C100.85 77.2293 100.854 75.4934 100.852 73.7552C100.718 73.7529 100.584 73.7507 100.451 73.7507C100.448 73.6328 100.444 73.404 100.442 73.2884ZM101.618 73.6532C101.55 74.3988 101.543 75.1512 101.611 75.899C101.89 75.8877 102.277 75.9262 102.372 75.5818C102.531 75.0809 102.604 74.4985 102.379 74.0068C102.245 73.7076 101.903 73.6691 101.618 73.6532ZM101.566 76.3795C101.575 77.2406 101.566 78.104 101.57 78.9652C101.881 78.9697 102.3 78.9878 102.431 78.6343C102.644 78.07 102.585 77.4332 102.495 76.8508C102.406 76.4293 101.933 76.3273 101.566 76.3795ZM62.5556 73.2861C63.2264 73.2929 63.9085 73.2272 64.5725 73.3564C65.13 73.4855 65.4359 74.0657 65.4903 74.596C65.5401 75.2214 65.5447 75.9398 65.1209 76.4497C64.7628 76.8599 64.1782 76.8395 63.6819 76.8372C63.6728 77.5488 63.6705 78.2604 63.6841 78.972C63.7816 78.972 63.9765 78.972 64.0739 78.972C64.0762 79.1215 64.0785 79.2756 64.0807 79.4275C63.5754 79.4297 63.0677 79.4297 62.5624 79.4275C62.5601 79.2756 62.5578 79.1261 62.5578 78.9765C62.6938 78.9742 62.8298 78.972 62.968 78.9697C62.968 77.2315 62.968 75.4934 62.968 73.7552C62.8298 73.7507 62.6938 73.7484 62.5578 73.7462C62.5556 73.6306 62.5556 73.4017 62.5556 73.2861ZM63.6819 73.7054C63.6977 74.5846 63.6184 75.4753 63.7181 76.3455C64.0309 76.4565 64.4524 76.3477 64.5453 75.9942C64.7379 75.3438 64.7787 74.6028 64.509 73.9705C64.3595 73.6487 63.9674 73.719 63.6819 73.7054ZM64.5884 81.288C65.4948 81.288 66.4013 81.2903 67.31 81.2857C67.3123 81.5781 67.3123 81.8727 67.3123 82.165C67.0721 82.165 66.8319 82.1628 66.5917 82.165C66.5917 82.5117 66.5917 82.8585 66.5871 83.2075C67.2964 83.0964 68.0715 83.2279 68.6086 83.7355C69.4856 84.5219 69.6533 85.775 69.7077 86.8855C69.753 88.2135 69.6125 89.6616 68.7695 90.747C68.2732 91.3997 67.3395 91.6241 66.5871 91.3159C66.5894 91.7464 66.5894 92.177 66.5894 92.6076C66.8296 92.6076 67.0721 92.6076 67.3123 92.6121C67.31 92.8977 67.31 93.1855 67.31 93.471C66.4013 93.4687 65.4948 93.4687 64.5884 93.471C64.5861 93.1832 64.5861 92.8954 64.5861 92.6076C64.8263 92.6076 65.0688 92.6053 65.309 92.6076C65.309 92.177 65.3067 91.7464 65.309 91.3181C64.7991 91.4518 64.2326 91.5153 63.7499 91.2524C62.9454 90.8196 62.5193 89.929 62.304 89.0769C62.0321 87.8418 62.0502 86.5387 62.3494 85.3105C62.5578 84.4471 63.1312 83.629 63.9855 83.3117C64.4048 83.1349 64.8671 83.1712 65.309 83.2097C65.3067 82.8607 65.3067 82.5117 65.3067 82.165C65.0642 82.165 64.8263 82.165 64.5884 82.165C64.5884 81.8727 64.5884 81.5781 64.5884 81.288ZM66.5939 84.0731C66.5894 86.2328 66.5917 88.3925 66.5939 90.5522C66.7752 90.5975 66.9588 90.6383 67.1423 90.6881C67.4936 90.5862 67.7905 90.3323 67.8743 89.9652C68.2482 88.678 68.2278 87.3138 68.1825 85.9881C68.1281 85.3445 68.0805 84.5694 67.5095 84.1593C67.2466 83.9485 66.8953 84.0391 66.5939 84.0731ZM63.8632 85.0861C63.5255 86.3507 63.6252 87.6854 63.7861 88.9726C63.8949 89.512 63.9357 90.1352 64.3413 90.5476C64.6087 90.8082 64.9963 90.6541 65.3045 90.5726C65.3045 88.3993 65.3045 86.2238 65.2863 84.0505C64.6586 84.0437 64.0127 84.4516 63.8632 85.0861ZM12.6678 82.4891C13.1233 81.7594 14.0797 81.3152 14.9204 81.5962C15.3102 81.7163 15.6116 82.0019 15.9107 82.2693C15.9765 82.131 16.0467 81.9996 16.1147 81.8636C16.3232 81.8659 16.5317 81.8681 16.7402 81.8704C16.7447 83.1009 16.7447 84.3338 16.7402 85.5643C16.4546 85.5666 16.1714 85.5462 15.8881 85.5326C15.8382 84.8028 15.7385 84.0731 15.5391 83.3706C15.4394 83.042 15.2785 82.693 14.9544 82.5321C14.6077 82.3826 14.1499 82.437 13.9142 82.7542C13.5222 83.2664 13.4134 83.9281 13.3454 84.5536C13.2616 85.698 13.2888 86.8469 13.2888 87.9914C13.3114 89.1721 13.3409 90.3777 13.6922 91.5153C13.8327 91.9345 14.0434 92.4059 14.4876 92.5736C14.866 92.7005 15.2128 92.424 15.4167 92.1317C15.9651 91.368 16.0694 90.3958 16.0898 89.4825C16.4116 89.4825 16.7356 89.4825 17.0574 89.4848C17.003 90.5544 16.9962 91.7147 16.3866 92.6438C15.981 93.1605 15.4031 93.6999 14.6938 93.6364C14.3108 93.6296 13.8938 93.6818 13.5607 93.4551C12.7698 92.9906 12.3868 92.0954 12.1376 91.2547C11.7047 89.6525 11.639 87.9732 11.6775 86.3235C11.7274 84.9977 11.9313 83.6222 12.6678 82.4891ZM90.3707 81.5849C90.8103 81.5735 91.2477 81.5758 91.6874 81.5781C92.4216 85.2561 93.1513 88.9341 93.8878 92.6121C94.119 92.6121 94.3501 92.6144 94.5858 92.6167C94.5881 92.8999 94.5881 93.1855 94.5881 93.471C93.6204 93.4687 92.6528 93.471 91.6828 93.4687C91.6828 93.1832 91.6828 92.8999 91.6851 92.6167C91.9366 92.6144 92.1905 92.6121 92.4443 92.6121C92.2879 91.9345 92.1995 91.2411 92.0205 90.568C91.8641 90.4774 91.6692 90.5272 91.5015 90.5114C90.8965 90.525 90.2914 90.4842 89.6909 90.5522C89.5775 91.2411 89.4461 91.9255 89.3192 92.6121C89.5639 92.6121 89.8064 92.6121 90.0534 92.6121C90.0648 92.8954 90.0716 93.1809 90.0648 93.4687C89.2648 93.4665 88.4649 93.4665 87.6649 93.4687C87.6626 93.1832 87.6649 92.9022 87.6672 92.6189C87.862 92.6144 88.0569 92.6144 88.2541 92.6121C88.9725 88.9386 89.675 85.2629 90.3707 81.5849ZM89.8857 89.5686C90.5384 89.5664 91.1911 89.5686 91.846 89.5664C91.5582 87.7376 91.1911 85.9201 90.8421 84.1003C90.5089 85.9223 90.203 87.7466 89.8857 89.5686ZM96.2379 82.199C96.8452 81.4353 98.0576 81.2767 98.8213 81.8953C99.7822 82.6364 100.011 83.9893 99.7572 85.1179C99.5963 85.9677 99.057 86.7404 98.2593 87.103C98.8893 87.3931 99.4717 87.835 99.7822 88.4718C100.265 89.4417 100.272 90.5862 100.031 91.6263C99.8207 92.4829 99.2723 93.36 98.3703 93.5956C97.8944 93.6636 97.4095 93.6206 96.9313 93.6568C96.367 93.5322 95.8821 93.1469 95.5943 92.6506C95.1637 91.9277 95.0118 91.0281 95.2158 90.2077C95.2997 89.8904 95.4832 89.5278 95.8413 89.4667C96.1857 89.3873 96.4849 89.6661 96.6118 89.963C96.8248 90.4796 96.7659 91.0824 96.5166 91.5765C96.0634 92.2609 97.1103 93.1719 97.7585 92.7186C98.3114 92.4218 98.572 91.8031 98.6015 91.2003C98.6717 90.2009 98.6989 89.0995 98.146 88.2203C97.8038 87.6741 97.1262 87.5223 96.5257 87.5404C96.5234 87.2594 96.5234 86.9784 96.5211 86.6974C97.0673 86.6543 97.7222 86.6113 98.0508 86.1036C98.4111 85.5099 98.427 84.7825 98.4043 84.1071C98.3681 83.6244 98.3295 83.0896 98.0032 82.7066C97.6769 82.3304 97.0197 82.412 96.7636 82.829C96.3013 83.5383 96.3081 84.4244 96.2356 85.238C95.9614 85.2357 95.6894 85.2312 95.4175 85.2244C95.4198 84.0686 95.4039 82.9106 95.4266 81.7526C95.6486 81.7526 95.873 81.7548 96.0974 81.7548C96.1427 81.9021 96.188 82.0494 96.2379 82.199ZM17.5016 81.7571C18.4466 81.7594 19.3893 81.7526 20.3343 81.7616C20.3366 82.0653 20.3366 82.3735 20.3343 82.6794C20.1032 82.6817 19.8743 82.684 19.6432 82.6885C20.2165 84.5014 20.7445 86.328 21.3224 88.1409C21.7326 86.3212 22.1541 84.506 22.5688 82.6885C22.3263 82.6817 22.0861 82.6794 21.8459 82.6749C21.8459 82.3667 21.8481 82.0608 21.8549 81.7526C22.6345 81.7548 23.4163 81.7571 24.1982 81.7526C24.205 82.0585 24.2095 82.3667 24.2095 82.6772C24.0237 82.6772 23.8379 82.6794 23.652 82.6817C23.0334 85.1564 22.417 87.6311 21.7983 90.108C21.5535 91.087 21.3065 92.0841 20.8034 92.9702C20.604 93.2806 20.3162 93.6251 19.9174 93.6296C19.5684 93.6228 19.1605 93.7112 18.8794 93.4461C18.2404 92.9407 18.0138 92.0909 18.0002 91.3091C18.0002 90.815 18.1157 90.253 18.5373 89.9448C18.7412 89.8338 19.0313 89.8428 19.2035 90.0128C19.6024 90.3731 19.6635 90.9669 19.5956 91.47C19.5389 91.8869 19.0902 92.3062 19.3893 92.7186C19.5548 92.9498 19.8788 92.7934 19.9831 92.5804C20.3366 91.9934 20.5224 91.3136 20.6516 90.6473C19.8471 87.9868 18.9588 85.349 18.1339 82.693C17.9231 82.6862 17.7101 82.6817 17.4993 82.6794C17.4971 82.3712 17.4971 82.063 17.5016 81.7571ZM24.529 81.7707C25.3925 81.7435 26.2581 81.7526 27.1238 81.7639C27.8581 81.816 28.7101 81.8274 29.2382 82.4256C30.054 83.1871 30.1446 84.3859 30.1174 85.4329C30.0789 86.3801 29.8795 87.4498 29.075 88.0548C28.3861 88.5896 27.466 88.5103 26.6479 88.5103C26.6457 89.87 26.6457 91.2298 26.6457 92.5895C26.8949 92.5895 27.1442 92.5917 27.3935 92.594C27.3935 92.8841 27.3935 93.1764 27.3935 93.4687C26.4394 93.4687 25.4831 93.471 24.529 93.4687C24.529 93.1764 24.529 92.8841 24.529 92.594C24.7829 92.5917 25.0367 92.5917 25.2905 92.5917C25.2905 89.2854 25.2882 85.9813 25.2905 82.6749C25.0367 82.6636 24.7806 82.6545 24.5268 82.6477C24.5268 82.3554 24.5268 82.063 24.529 81.7707ZM26.6457 82.5956C26.6479 84.2635 26.6434 85.9291 26.6479 87.5971C27.1351 87.6424 27.7606 87.7512 28.096 87.2934C28.5289 86.6158 28.5447 85.7705 28.5515 84.991C28.5492 84.2816 28.5357 83.5021 28.1073 82.9015C27.7538 82.471 27.1374 82.5117 26.6457 82.5956ZM30.6976 82.65C30.6999 82.3508 30.7044 82.0517 30.7112 81.7526C32.3383 81.7594 33.9654 81.7571 35.5925 81.7548C35.6084 83.0103 35.5948 84.268 35.5993 85.5258C35.3297 85.5258 35.06 85.5258 34.7903 85.528C34.6974 84.8391 34.6883 84.1411 34.5954 83.4522C34.5546 83.1984 34.4662 82.8925 34.1943 82.8018C33.7569 82.6386 33.2788 82.684 32.821 82.6976C32.8187 85.9949 32.821 89.2922 32.821 92.5917C33.0725 92.5917 33.3241 92.594 33.5756 92.5963C33.5756 92.8841 33.5756 93.1741 33.5779 93.4642C32.6193 93.4778 31.663 93.4642 30.7044 93.471C30.7044 93.1764 30.7044 92.8841 30.7044 92.594C30.9605 92.5917 31.2165 92.5917 31.4726 92.5917C31.4726 89.2876 31.4704 85.9858 31.4749 82.684C31.212 82.6681 30.9537 82.6568 30.6976 82.65ZM36.0322 81.7548C36.9749 81.7548 37.9176 81.7594 38.8604 81.7526C38.8808 82.0608 38.8853 82.3712 38.8694 82.6817C38.6406 82.6817 38.4139 82.6817 38.1851 82.684C38.7403 84.4992 39.2706 86.3235 39.8575 88.1296C40.2699 86.3144 40.6937 84.5014 41.0948 82.684C40.8546 82.6817 40.6167 82.6817 40.3787 82.6817C40.3787 82.3735 40.3765 82.0653 40.3787 81.7571C41.1651 81.7571 41.9492 81.7571 42.7355 81.7571C42.7469 82.063 42.7514 82.3712 42.7446 82.6794C42.5543 82.6817 42.3639 82.6862 42.1758 82.693C41.6365 84.9048 41.0722 87.1121 40.5283 89.3239C40.2314 90.4887 39.9957 91.6852 39.4473 92.7685C39.266 93.1175 39.0167 93.4733 38.6315 93.6115C38.3142 93.65 37.9879 93.6546 37.6729 93.6047C36.9817 93.2602 36.635 92.4694 36.567 91.7328C36.5194 91.1595 36.5126 90.4887 36.95 90.0513C37.1585 89.8043 37.5868 89.8179 37.7907 90.0649C38.1125 90.3867 38.1715 90.874 38.1465 91.3113C38.1443 91.6717 37.9154 91.9731 37.8179 92.3107C37.8089 92.4875 37.8927 92.6529 37.938 92.8229C38.3731 92.9316 38.5952 92.5079 38.7335 92.1679C38.917 91.6377 39.1822 91.0938 39.155 90.525C38.3437 87.9075 37.4848 85.3014 36.6599 82.6862C36.4492 82.684 36.2407 82.6817 36.0299 82.6817C36.0299 82.3712 36.0299 82.063 36.0322 81.7548ZM43.0256 85.6028C43.0302 84.3202 43.0166 83.0352 43.0324 81.7526C44.4125 81.7616 45.7949 81.7526 47.175 81.7571C47.6282 81.7571 48.086 81.7299 48.537 81.8047C48.5234 83.067 48.5324 84.3292 48.5324 85.5938C48.2424 85.5983 47.9523 85.6028 47.6622 85.6051C47.5693 84.8504 47.601 84.0822 47.4401 83.3389C47.345 82.8743 46.9121 82.5344 46.4317 82.5979C46.4272 85.9291 46.4226 89.2627 46.434 92.5963C46.6696 92.594 46.9076 92.5917 47.1455 92.5917C47.1455 92.8863 47.1433 93.1787 47.1387 93.4733C46.2187 93.4687 45.2986 93.471 44.3808 93.471C44.3808 93.1787 44.3808 92.8886 44.3785 92.5985C44.6278 92.5963 44.8771 92.594 45.1264 92.594C45.1264 89.2627 45.1332 85.9314 45.1218 82.6001C44.6391 82.5367 44.17 82.8494 44.0998 83.3434C43.9684 84.089 43.8868 84.8459 43.8777 85.6051C43.5922 85.6005 43.3089 85.6005 43.0256 85.6028ZM49.0967 82.65C49.099 82.3508 49.1013 82.0517 49.1081 81.7548C50.0644 81.7594 51.0207 81.7571 51.9748 81.7571C51.977 82.0562 51.977 82.3554 51.977 82.6568C51.7278 82.6568 51.4785 82.659 51.2315 82.659C51.2292 84.0074 51.2315 85.3581 51.2315 86.7064C51.9793 86.7087 52.7271 86.7042 53.475 86.7087C53.4773 85.3581 53.4795 84.0074 53.475 82.6568C53.2302 82.6545 52.9878 82.6545 52.7453 82.6545C52.7453 82.3554 52.7453 82.0562 52.7475 81.7594C53.6948 81.7503 54.6421 81.7594 55.5893 81.7548C55.6007 82.0517 55.6075 82.3508 55.6097 82.65C55.3582 82.6568 55.1089 82.6658 54.8574 82.6772C54.8642 85.9813 54.8574 89.2876 54.8596 92.5917C55.1089 92.5917 55.3605 92.594 55.6097 92.594C55.6075 92.8863 55.6007 93.1787 55.5916 93.4733C54.6421 93.4687 53.6925 93.471 52.7453 93.471C52.7453 93.1764 52.7453 92.8841 52.7453 92.5917C52.9878 92.5917 53.2325 92.5917 53.475 92.594C53.475 90.9533 53.475 89.3148 53.475 87.6741C52.7249 87.6741 51.977 87.6718 51.2292 87.6741C51.2269 89.3126 51.2292 90.951 51.2292 92.5917C51.4785 92.5917 51.7278 92.5917 51.977 92.594C51.977 92.8863 51.977 93.1764 51.977 93.4687C51.0184 93.471 50.0576 93.4687 49.099 93.471C49.0967 93.1787 49.0967 92.8863 49.0967 92.5963C49.3505 92.5917 49.6043 92.5895 49.8582 92.5849C49.8559 89.2831 49.8559 85.979 49.8582 82.6772C49.6066 82.6658 49.3528 82.6568 49.0967 82.65ZM56.2397 81.7571C57.7241 81.7548 59.2084 81.7594 60.695 81.7548C60.9285 81.7503 61.1619 81.773 61.393 81.8047C61.3794 83.0352 61.3885 84.2658 61.3885 85.4963C61.1007 85.5008 60.8106 85.5031 60.5228 85.5054C60.4616 84.7417 60.4548 83.9666 60.269 83.2188C60.2078 82.897 59.9042 82.6681 59.5892 82.6228C59.179 82.5729 58.7643 82.6001 58.3541 82.6047C58.3586 83.9825 58.3473 85.3603 58.3586 86.7359C58.592 86.7382 58.8277 86.7382 59.0634 86.7382C59.0657 86.3257 59.0634 85.9133 59.0657 85.5008C59.3716 85.5008 59.6775 85.5008 59.9857 85.5008C59.9857 86.6475 59.9857 87.7942 59.9857 88.9409C59.6798 88.9409 59.3716 88.9409 59.0657 88.9409C59.0657 88.5239 59.0634 88.1069 59.0657 87.69C58.83 87.6877 58.5943 87.6877 58.3586 87.6877C58.3541 89.3148 58.345 90.9442 58.3631 92.5713C58.8526 92.5577 59.3535 92.6235 59.8362 92.5124C60.2826 92.4036 60.4662 91.9255 60.5205 91.5175C60.5817 90.8173 60.6157 90.1148 60.6316 89.4123C60.9375 89.41 61.2457 89.41 61.5539 89.41C61.5585 90.7607 61.5517 92.1113 61.5585 93.4619C59.784 93.4687 58.0096 93.4665 56.2352 93.4619C56.2352 93.1696 56.2352 92.8795 56.2352 92.5895C56.489 92.5872 56.7451 92.5872 57.0012 92.5872C57.008 89.2831 56.9966 85.9767 57.0057 82.6726C56.7474 82.6613 56.4913 82.65 56.2329 82.6409C56.2375 82.3486 56.2375 82.054 56.2397 81.7571ZM70.3241 81.7571C72.1551 81.7571 73.9839 81.7594 75.8128 81.7548C75.8286 83.0375 75.815 84.3202 75.8195 85.6028C75.5295 85.6005 75.2417 85.6006 74.9539 85.6006C74.895 84.8482 74.8859 84.0913 74.7476 83.3502C74.6547 82.8743 74.2106 82.5344 73.7233 82.5933C73.712 85.9246 73.7233 89.2582 73.7188 92.5917C73.9658 92.5917 74.2128 92.594 74.4621 92.5963C74.4621 92.8886 74.4508 93.1787 74.4372 93.471C73.5216 93.4687 72.6084 93.4687 71.6928 93.471C71.6928 93.1787 71.6928 92.8863 71.6928 92.594C71.9376 92.5917 72.1823 92.5917 72.4271 92.5917C72.4203 89.2627 72.4361 85.9314 72.4203 82.6001C71.9625 82.5412 71.5138 82.8177 71.4141 83.2777C71.2623 84.0437 71.1943 84.8255 71.1671 85.6051C70.8838 85.6028 70.6005 85.6028 70.3195 85.5983C70.3241 84.3156 70.3173 83.0352 70.3241 81.7571ZM76.3997 81.7571C78.1039 81.7548 79.808 81.7571 81.5122 81.7571C81.5621 83.0058 81.5394 84.2567 81.5167 85.5054C81.238 85.5031 80.9615 85.5031 80.6828 85.5054C80.6103 84.7485 80.6125 83.978 80.4244 83.2347C80.3633 82.9129 80.0686 82.6794 79.7559 82.6319C79.3457 82.5752 78.9288 82.6069 78.5163 82.6047C78.514 83.9848 78.514 85.3649 78.5163 86.7427C78.7475 86.7404 78.9809 86.7404 79.2143 86.7404C79.2143 86.328 79.2143 85.9155 79.2166 85.5031C79.5225 85.5031 79.8307 85.5031 80.1389 85.5054C80.1412 86.6521 80.1366 87.7965 80.1389 88.9432C79.8307 88.9432 79.5225 88.9432 79.2143 88.9432C79.2143 88.5262 79.2143 88.1092 79.212 87.6922C78.9809 87.69 78.7497 87.69 78.5208 87.69C78.5095 89.3194 78.5186 90.9487 78.5163 92.5781C79.0307 92.56 79.5633 92.6438 80.0641 92.492C80.4947 92.3402 80.6397 91.8439 80.6873 91.436C80.7372 90.7629 80.7689 90.0899 80.7938 89.4191C81.0998 89.4145 81.4057 89.4168 81.7116 89.4191C81.7116 90.772 81.7139 92.1226 81.7116 93.4733C79.9417 93.471 78.1696 93.4733 76.3997 93.471C76.3997 93.1787 76.3997 92.8863 76.3997 92.5963C76.6512 92.5963 76.9051 92.594 77.1589 92.594C77.1611 89.2831 77.1611 85.9722 77.1589 82.6613C76.9051 82.659 76.6535 82.659 76.3997 82.659C76.3974 82.3554 76.3974 82.0562 76.3997 81.7571ZM82.3348 82.65C82.3371 82.3508 82.3416 82.0517 82.3507 81.7526C83.9778 81.7616 85.6072 81.7548 87.2343 81.7548C87.2434 83.008 87.2298 84.2635 87.2411 85.5167C86.9714 85.5235 86.7018 85.5258 86.4343 85.5303C86.3301 84.8391 86.3301 84.1389 86.2327 83.4499C86.1941 83.1961 86.099 82.8902 85.827 82.8018C85.3896 82.6432 84.916 82.6817 84.4582 82.6998C84.456 85.9971 84.4582 89.2922 84.4582 92.5917C84.7075 92.5917 84.9591 92.594 85.2106 92.594C85.2084 92.8841 85.2084 93.1741 85.2106 93.4642C84.252 93.471 83.2957 93.4642 82.3416 93.4687C82.3394 93.1741 82.3394 92.8818 82.3416 92.5917C82.5954 92.5895 82.8515 92.5895 83.1076 92.5895C83.1099 89.2854 83.1076 85.9835 83.1099 82.6817C82.8492 82.6681 82.5932 82.6568 82.3348 82.65ZM8.16947 86.1875C8.5094 86.1875 8.84932 86.1852 9.18925 86.1875C8.78587 87.2367 8.23519 88.2225 7.79102 89.2536C7.74116 89.3737 7.84994 89.4916 7.88166 89.6049C8.33943 90.5476 8.77227 91.5017 9.22778 92.4444C8.87425 92.4467 8.51846 92.4467 8.16494 92.4467C7.67318 91.4042 7.18141 90.3618 6.68739 89.3194C7.18821 88.2769 7.67318 87.2322 8.16947 86.1875ZM10.1433 86.1875C10.4538 86.1875 10.762 86.1875 11.0724 86.1898C10.7756 87.0418 10.345 87.8373 9.98695 88.6622C9.88044 88.9409 9.63116 89.2446 9.79432 89.5505C10.2294 90.5159 10.6713 91.479 11.111 92.4444C10.7869 92.4467 10.4628 92.4467 10.1388 92.4467C9.65155 91.4586 9.17792 90.4638 8.69976 89.4712C8.59098 89.3216 8.70655 89.163 8.76548 89.0202C9.23231 88.0798 9.67648 87.128 10.1433 86.1875ZM100.725 86.1875C101.047 86.1875 101.371 86.1875 101.695 86.1898C102.2 87.2322 102.701 88.2769 103.202 89.3216C102.703 90.3641 102.198 91.4042 101.699 92.4467C101.373 92.4467 101.047 92.4467 100.72 92.4444C101.142 91.504 101.572 90.568 102.003 89.6321C102.064 89.478 102.171 89.308 102.062 89.1494C101.625 88.1591 101.153 87.1846 100.725 86.1875ZM102.608 86.1898C102.95 86.1875 103.29 86.1875 103.632 86.1852C104.151 87.2186 104.639 88.2701 105.135 89.3171C104.648 90.3663 104.151 91.4133 103.639 92.4512C103.295 92.4467 102.95 92.4467 102.608 92.4467C103.095 91.402 103.587 90.3618 104.081 89.3216C103.587 88.2769 103.089 87.2367 102.608 86.1898Z" fill="#8C8C8C"/>
</svg>
