<svg width="23" height="23" viewBox="0 0 23 23" fill="none" xmlns="http://www.w3.org/2000/svg">
<path d="M16.2491 0.713135H6.62332C3.51735 0.713135 1 3.23093 1 6.33646V15.9623C1 19.0682 3.5178 21.5856 6.62377 21.5856H16.2487C19.3547 21.5856 21.8725 19.0678 21.8725 15.9618V6.33646C21.8725 3.23049 19.3547 0.713135 16.2487 0.713135H16.2491Z" stroke="#2F69B2" stroke-miterlimit="10" stroke-linejoin="round"/>
<path d="M11.4359 16.1876C14.2185 16.1876 16.4742 13.9319 16.4742 11.1494C16.4742 8.3668 14.2185 6.11108 11.4359 6.11108C8.65336 6.11108 6.39764 8.3668 6.39764 11.1494C6.39764 13.9319 8.65336 16.1876 11.4359 16.1876Z" stroke="#2F69B2" stroke-miterlimit="10" stroke-linejoin="round"/>
<path d="M17.554 6.11091C18.1501 6.11091 18.6335 5.6276 18.6335 5.03141C18.6335 4.43521 18.1501 3.9519 17.554 3.9519C16.9578 3.9519 16.4745 4.43521 16.4745 5.03141C16.4745 5.6276 16.9578 6.11091 17.554 6.11091Z" fill="#2F69B2"/>
</svg>
