<svg width="20" height="30" viewBox="0 0 20 30" fill="none" xmlns="http://www.w3.org/2000/svg">
<path d="M1.80547 1.82866L1.83689 1.79049C2.36607 1.28288 3.08591 0.998236 3.83623 1.00001H16.9205C18.4755 1.00451 19.7349 2.20639 19.7396 3.69039V26.6772C19.7411 27.3932 19.4429 28.0801 18.9113 28.5853C18.382 29.0926 17.6622 29.3772 16.912 29.3757H3.82767C3.07784 29.3779 2.35814 29.0944 1.82832 28.588C1.29671 28.0828 0.998516 27.3959 1.00002 26.6799V3.69311C1.00416 2.99531 1.29306 2.32653 1.80547 1.82866ZM2.09395 26.6772C2.09366 27.116 2.2766 27.5368 2.60235 27.8466C2.92689 28.1574 3.36789 28.332 3.82767 28.3318H16.9205C17.3804 28.332 17.8213 28.1574 18.1459 27.8466C18.4724 27.5371 18.6563 27.1163 18.6571 26.6772V3.69311C18.654 2.77908 17.8783 2.03882 16.9205 2.03582H3.82767C3.36753 2.03657 2.9266 2.21211 2.60235 2.52374L2.57665 2.54555C2.26482 2.85343 2.09073 3.26496 2.09109 3.69311L2.09395 26.6772Z" fill="#707070" stroke="white" stroke-width="0.1"/>
<path d="M10.2205 27.8377C9.71447 27.8377 9.30428 27.4347 9.30428 26.9376C9.30428 26.4406 9.71447 26.0376 10.2205 26.0376C10.7265 26.0376 11.1367 26.4406 11.1367 26.9376C11.1367 27.4347 10.7265 27.8377 10.2205 27.8377Z" fill="#707070"/>
<path d="M4.24185 3.84519H4.24687C4.63831 3.39728 5.17017 3.14528 5.72506 3.14478H15.0108C15.5648 3.14599 16.0956 3.398 16.4865 3.84519C16.8797 4.29109 17.1009 4.89702 17.1014 5.52904V23.4939C17.1009 24.126 16.8797 24.7319 16.4865 25.1778C16.0951 25.6257 15.5631 25.8777 15.0083 25.8782H5.72255C5.18115 25.8778 4.66109 25.638 4.27196 25.2092L4.24185 25.1778C3.84865 24.7319 3.62742 24.126 3.62698 23.4939V5.52618C3.62805 4.89517 3.84921 4.29045 4.24185 3.84519ZM4.92197 24.4116L4.94204 24.4373C5.15367 24.6674 5.43507 24.7954 5.72757 24.7947H15.0133C15.3156 24.7953 15.6056 24.6584 15.8189 24.4145C16.0338 24.1717 16.1548 23.8415 16.1552 23.4968V5.52618C16.1557 5.18183 16.0356 4.8515 15.8214 4.6085C15.6081 4.36457 15.3181 4.2277 15.0158 4.22827H5.73008C5.42779 4.2277 5.1378 4.36457 4.92448 4.6085C4.71034 4.8515 4.59019 5.18183 4.59069 5.52618L4.58567 23.4939C4.58611 23.8386 4.70714 24.1689 4.92197 24.4116Z" fill="#707070"/>
</svg>
