<svg width="32" height="19" viewBox="0 0 32 19" fill="none" xmlns="http://www.w3.org/2000/svg">
<path d="M30.3541 1.75234C30.5672 1.05927 30.3541 0.551025 29.3461 0.551025H26.0069C25.1572 0.551025 24.7689 0.990712 24.5557 1.47362C24.5557 1.47362 22.858 5.52619 20.4522 8.15387C19.6756 8.91848 19.3208 9.15993 18.8975 9.15993C18.6859 9.15993 18.3783 8.91848 18.3783 8.22541V1.75234C18.3783 0.92066 18.1331 0.551025 17.4251 0.551025H12.178C11.6481 0.551025 11.3283 0.935565 11.3283 1.30222C11.3283 2.08918 12.5312 2.27102 12.6546 4.48883V9.30004C12.6546 10.3538 12.4612 10.5461 12.0348 10.5461C10.9035 10.5461 8.15052 6.47859 6.5167 1.82239C6.19846 0.917679 5.87718 0.552516 5.02448 0.552516H1.68679C0.732082 0.552516 0.541748 0.992203 0.541748 1.47511C0.541748 2.34256 1.67309 6.63509 5.8117 12.3123C8.57078 16.189 12.4551 18.2905 15.9938 18.2905C18.1149 18.2905 18.3768 17.824 18.3768 17.0191V14.0889C18.3768 13.1559 18.5793 12.9681 19.2508 12.9681C19.7441 12.9681 20.5938 13.2125 22.5748 15.08C24.8374 17.2949 25.212 18.289 26.4834 18.289H29.8211C30.7743 18.289 31.2509 17.8225 30.9768 16.9014C30.6769 15.9848 29.5958 14.6508 28.1614 13.0724C27.3818 12.1722 26.217 11.2034 25.8622 10.719C25.3673 10.0945 25.5105 9.81872 25.8622 9.26427C25.8637 9.26576 29.9308 3.65864 30.3541 1.75234V1.75234Z" stroke="#2F69B2" stroke-linejoin="round"/>
</svg>
