<svg width="91" height="73" viewBox="0 0 91 73" fill="none" xmlns="http://www.w3.org/2000/svg">
<path d="M20.5676 63.518H17.7816V70H16.7876V63.518H14.0016V62.636H20.5676V63.518ZM25.7988 62.58C26.4895 62.58 27.1148 62.7387 27.6748 63.056C28.2348 63.364 28.6735 63.8027 28.9908 64.372C29.3082 64.9413 29.4668 65.59 29.4668 66.318C29.4668 67.0553 29.3082 67.7087 28.9908 68.278C28.6735 68.8473 28.2348 69.2907 27.6748 69.608C27.1242 69.916 26.4988 70.07 25.7988 70.07C25.2015 70.07 24.6602 69.9487 24.1748 69.706C23.6988 69.454 23.3068 69.09 22.9988 68.614V72.716H22.0048V62.636H22.9568V64.092C23.2555 63.6067 23.6475 63.2333 24.1328 62.972C24.6275 62.7107 25.1828 62.58 25.7988 62.58ZM25.7288 69.188C26.2422 69.188 26.7088 69.0713 27.1288 68.838C27.5488 68.5953 27.8755 68.2547 28.1088 67.816C28.3515 67.3773 28.4728 66.878 28.4728 66.318C28.4728 65.758 28.3515 65.2633 28.1088 64.834C27.8755 64.3953 27.5488 64.0547 27.1288 63.812C26.7088 63.5693 26.2422 63.448 25.7288 63.448C25.2062 63.448 24.7348 63.5693 24.3148 63.812C23.9042 64.0547 23.5775 64.3953 23.3348 64.834C23.1015 65.2633 22.9848 65.758 22.9848 66.318C22.9848 66.878 23.1015 67.3773 23.3348 67.816C23.5775 68.2547 23.9042 68.5953 24.3148 68.838C24.7348 69.0713 25.2062 69.188 25.7288 69.188ZM31.6025 62.636H32.5965V68.488L37.5105 62.636H38.3925V70H37.3985V64.148L32.4985 70H31.6025V62.636ZM46.4491 63.518H42.2351V70H41.2411V62.636H46.4491V63.518ZM53.0937 63.518H48.8797V70H47.8857V62.636H53.0937V63.518ZM60.6284 66.626H54.4684C54.5244 67.3913 54.8184 68.012 55.3504 68.488C55.8824 68.9547 56.5544 69.188 57.3664 69.188C57.8237 69.188 58.2437 69.1087 58.6264 68.95C59.0091 68.782 59.3404 68.5393 59.6204 68.222L60.1804 68.866C59.8537 69.258 59.4431 69.5567 58.9484 69.762C58.4631 69.9673 57.9264 70.07 57.3384 70.07C56.5824 70.07 55.9104 69.9113 55.3224 69.594C54.7437 69.2673 54.2911 68.8193 53.9644 68.25C53.6377 67.6807 53.4744 67.0367 53.4744 66.318C53.4744 65.5993 53.6284 64.9553 53.9364 64.386C54.2537 63.8167 54.6831 63.3733 55.2244 63.056C55.7751 62.7387 56.3911 62.58 57.0724 62.58C57.7537 62.58 58.3651 62.7387 58.9064 63.056C59.4477 63.3733 59.8724 63.8167 60.1804 64.386C60.4884 64.946 60.6424 65.59 60.6424 66.318L60.6284 66.626ZM57.0724 63.434C56.3631 63.434 55.7657 63.6627 55.2804 64.12C54.8044 64.568 54.5337 65.156 54.4684 65.884H59.6904C59.6251 65.156 59.3497 64.568 58.8644 64.12C58.3884 63.6627 57.7911 63.434 57.0724 63.434ZM66.6367 62.58C67.3274 62.58 67.9527 62.7387 68.5127 63.056C69.0727 63.364 69.5114 63.8027 69.8287 64.372C70.146 64.9413 70.3047 65.59 70.3047 66.318C70.3047 67.0553 70.146 67.7087 69.8287 68.278C69.5114 68.8473 69.0727 69.2907 68.5127 69.608C67.962 69.916 67.3367 70.07 66.6367 70.07C66.0394 70.07 65.498 69.9487 65.0127 69.706C64.5367 69.454 64.1447 69.09 63.8367 68.614V72.716H62.8427V62.636H63.7947V64.092C64.0934 63.6067 64.4854 63.2333 64.9707 62.972C65.4654 62.7107 66.0207 62.58 66.6367 62.58ZM66.5667 69.188C67.08 69.188 67.5467 69.0713 67.9667 68.838C68.3867 68.5953 68.7134 68.2547 68.9467 67.816C69.1894 67.3773 69.3107 66.878 69.3107 66.318C69.3107 65.758 69.1894 65.2633 68.9467 64.834C68.7134 64.3953 68.3867 64.0547 67.9667 63.812C67.5467 63.5693 67.08 63.448 66.5667 63.448C66.044 63.448 65.5727 63.5693 65.1527 63.812C64.742 64.0547 64.4154 64.3953 64.1727 64.834C63.9394 65.2633 63.8227 65.758 63.8227 66.318C63.8227 66.878 63.9394 67.3773 64.1727 67.816C64.4154 68.2547 64.742 68.5953 65.1527 68.838C65.5727 69.0713 66.044 69.188 66.5667 69.188Z" fill="#2F69B2"/>
<path d="M55.0974 44.3809C55.0974 46.4041 49.3568 48.0443 42.2755 48.0443C35.1942 48.0443 29.4536 46.4041 29.4536 44.3809" stroke="#2F69B2"/>
<path d="M33.1172 30.6431V45.2967" stroke="#2F69B2"/>
<path d="M29.4536 26.9797V45.2967" stroke="#2F69B2"/>
<path d="M55.0972 26.9797V45.2967" stroke="#2F69B2"/>
<path d="M35.8647 31.5591V46.2127" stroke="#2F69B2"/>
<path d="M39.5278 32.4749V47.1284" stroke="#2F69B2"/>
<path d="M42.2754 32.4749V47.1284" stroke="#2F69B2"/>
<path d="M45.0229 32.4749V47.1284" stroke="#2F69B2"/>
<path d="M48.6865 31.5591V46.2127" stroke="#2F69B2"/>
<path d="M51.4341 30.6431V45.2967" stroke="#2F69B2"/>
<ellipse cx="42.2755" cy="26.9798" rx="12.8219" ry="3.6634" fill="white" stroke="#2F69B2"/>
<path d="M26.7061 11.6189C35.8409 20.8006 35.029 27.8957 35.029 27.8957H49.4418C49.4418 27.8957 49.4418 17.4618 66.0876 11.4104L26.7061 11.6189Z" fill="white" stroke="#2F69B2" stroke-linecap="round" stroke-linejoin="round"/>
<path d="M41.6636 1.60122C33.5364 2.08166 28.9957 6.37311 26.7061 11.4103H67.0612L76.1619 7.2064V1.60122C68.0488 1.40103 49.7909 1.12077 41.6636 1.60122Z" stroke="#2F69B2" stroke-linecap="round" stroke-linejoin="round"/>
<path d="M67.0034 1.79395V11.4104" stroke="#2F69B2" stroke-linecap="round" stroke-linejoin="round"/>
<path d="M53.2656 19.653C56.0132 22.8584 57.8194 26.9444 60.8243 30.9526C63.8292 34.9608 66.8063 37.9113 67.9192 38.8855V37.4242C66.1803 34.6407 59.2186 25.1481 61.5083 13.7" stroke="#2F69B2" stroke-linecap="round" stroke-linejoin="round"/>
<path d="M67.0034 4.0835H75.704" stroke="#2F69B2"/>
<path d="M67.0034 6.83105H75.704" stroke="#2F69B2"/>
<path d="M34.0327 14.6157C34.9486 15.9895 36.9634 20.0192 37.6961 25.148" stroke="#2F69B2" stroke-linecap="round" stroke-linejoin="round"/>
</svg>
